<svg width="228" height="73" viewBox="0 0 228 73" fill="none" xmlns="http://www.w3.org/2000/svg">
<path d="M45.8357 71.4575C45.6518 71.4575 45.4963 71.3956 45.3692 71.2719C45.2455 71.1448 45.1836 70.9893 45.1836 70.8054C45.1836 70.6215 45.2455 70.4677 45.3692 70.3439C45.4963 70.2169 45.6518 70.1533 45.8357 70.1533C46.0196 70.1533 46.1734 70.2169 46.2971 70.3439C46.4242 70.4677 46.4877 70.6215 46.4877 70.8054C46.4877 70.9893 46.4242 71.1448 46.2971 71.2719C46.1734 71.3956 46.0196 71.4575 45.8357 71.4575Z" fill="black"/>
<path d="M38.7147 70.4943L42.6923 65.7391H43.8861V71.3871H42.9732V66.6069L38.9755 71.3871H37.8018V65.7391H38.7147V70.4943Z" fill="black"/>
<path d="M32.5086 70.5394L34.9463 65.7391H36.3107V71.3871H35.4379V66.6019L32.955 71.3871H32.0471L29.5642 66.6119V71.3871H28.6914V65.7391H30.0557L32.5086 70.5394Z" fill="black"/>
<path d="M27.3159 65.7393L27.0501 68.5633L27.3159 71.3873H26.3729L26.2275 69.8373C25.9232 70.3657 25.537 70.7787 25.0688 71.0763C24.604 71.3706 24.0873 71.5177 23.5189 71.5177C22.9704 71.5177 22.4806 71.394 22.0492 71.1465C21.6178 70.8957 21.2801 70.5463 21.036 70.0982C20.7952 69.6501 20.6748 69.1385 20.6748 68.5633C20.6748 67.9881 20.7952 67.4765 21.036 67.0284C21.2801 66.5803 21.6178 66.2325 22.0492 65.9851C22.4806 65.7343 22.9704 65.6089 23.5189 65.6089C24.0873 65.6089 24.604 65.756 25.0688 66.0503C25.537 66.3446 25.9232 66.7559 26.2275 67.2842L26.3729 65.7393H27.3159ZM23.6744 70.7402C24.2596 70.7402 24.7829 70.5446 25.2444 70.1534C25.7058 69.7588 26.067 69.2287 26.3278 68.5633C26.067 67.9012 25.7041 67.3728 25.2393 66.9782C24.7779 66.5837 24.2562 66.3864 23.6744 66.3864C23.2798 66.3864 22.9253 66.4783 22.611 66.6622C22.3 66.8462 22.0559 67.1036 21.8786 67.4347C21.7048 67.7658 21.6178 68.142 21.6178 68.5633C21.6178 68.988 21.7048 69.3658 21.8786 69.6969C22.0559 70.0246 22.3 70.2804 22.611 70.4643C22.9253 70.6483 23.2798 70.7402 23.6744 70.7402Z" fill="black"/>
<path d="M19.1155 70.6397H20.1739V72.8518H19.3563V71.3871H13.3371V72.8518H12.5195V70.6397H13.2569C13.4843 70.3956 13.6531 70.0328 13.7635 69.5513C13.8738 69.0664 13.929 68.4544 13.929 67.7154C13.929 67.1068 13.8939 66.4481 13.8237 65.7391H19.1155V70.6397ZM18.1926 70.6498V66.4865H14.7416C14.7784 66.9413 14.7968 67.4095 14.7968 67.891C14.7968 68.5197 14.7483 69.0697 14.6513 69.5412C14.5577 70.0127 14.4206 70.3823 14.24 70.6498H18.1926Z" fill="black"/>
<path d="M8.91818 71.5177C8.25942 71.5177 7.67589 71.394 7.16761 71.1465C6.65933 70.8991 6.26474 70.5513 5.98384 70.1032C5.70295 69.6551 5.5625 69.1418 5.5625 68.5633C5.5625 67.9848 5.70295 67.4715 5.98384 67.0234C6.26474 66.5753 6.65933 66.2275 7.16761 65.9801C7.67589 65.7326 8.25942 65.6089 8.91818 65.6089C9.57695 65.6089 10.1605 65.7326 10.6688 65.9801C11.177 66.2275 11.5716 66.5753 11.8525 67.0234C12.1334 67.4715 12.2739 67.9848 12.2739 68.5633C12.2739 69.1418 12.1334 69.6551 11.8525 70.1032C11.5716 70.5513 11.177 70.8991 10.6688 71.1465C10.1605 71.394 9.57695 71.5177 8.91818 71.5177ZM8.91818 70.7503C9.4064 70.7503 9.83109 70.6616 10.1922 70.4844C10.5567 70.3038 10.8376 70.0497 11.0349 69.722C11.2322 69.3909 11.3309 69.0047 11.3309 68.5633C11.3309 68.1252 11.2322 67.7407 11.0349 67.4096C10.8376 67.0786 10.5567 66.8244 10.1922 66.6472C9.83109 66.4666 9.4064 66.3763 8.91818 66.3763C8.42996 66.3763 8.0036 66.4666 7.63911 66.6472C7.27796 66.8244 6.99874 67.0786 6.80144 67.4096C6.60415 67.7407 6.5055 68.1252 6.5055 68.5633C6.5055 69.0047 6.60415 69.3909 6.80144 69.722C6.99874 70.0497 7.27796 70.3038 7.63911 70.4844C8.0036 70.6616 8.42996 70.7503 8.91818 70.7503Z" fill="black"/>
<path d="M1.13281 65.7391H5.36629V66.4966H2.05575V71.3871H1.13281V65.7391Z" fill="black"/>
<path d="M195.001 53.0696C195.045 53.4609 195.173 53.802 195.387 54.0929C195.605 54.3805 195.892 54.6012 196.25 54.755C196.608 54.9088 197.019 54.9857 197.484 54.9857C197.942 54.9857 198.394 54.9105 198.838 54.76C199.283 54.6062 199.686 54.3922 200.047 54.118V54.8453C199.699 55.1262 199.285 55.3486 198.803 55.5124C198.322 55.6729 197.84 55.7532 197.359 55.7532C196.713 55.7532 196.138 55.6294 195.633 55.382C195.132 55.1312 194.74 54.7817 194.459 54.3337C194.179 53.8856 194.038 53.3723 194.038 52.7938C194.038 52.2186 194.17 51.707 194.434 51.2589C194.702 50.8108 195.075 50.463 195.553 50.2155C196.031 49.9681 196.576 49.8444 197.188 49.8444C197.79 49.8444 198.318 49.9798 198.773 50.2507C199.231 50.5182 199.586 50.896 199.837 51.3843C200.087 51.8691 200.213 52.4309 200.213 53.0696H195.001ZM197.173 50.6118C196.785 50.6118 196.437 50.682 196.13 50.8225C195.825 50.9596 195.576 51.1585 195.382 51.4194C195.192 51.6769 195.068 51.9812 195.011 52.3323H199.245C199.184 51.9778 199.061 51.6718 198.873 51.4144C198.69 51.1569 198.452 50.9596 198.161 50.8225C197.874 50.682 197.544 50.6118 197.173 50.6118Z" fill="black"/>
<path d="M192.521 49.9747V54.8753H193.514V57.0874H192.697V55.6227H183.011V49.9747H183.934V54.8753H187.304V49.9747H188.227V54.8753H191.598V49.9747H192.521Z" fill="black"/>
<path d="M176.652 53.0696C176.695 53.4609 176.824 53.802 177.038 54.0929C177.255 54.3805 177.543 54.6012 177.901 54.755C178.258 54.9088 178.67 54.9857 179.134 54.9857C179.593 54.9857 180.044 54.9105 180.489 54.76C180.933 54.6062 181.336 54.3922 181.698 54.118V54.8453C181.35 55.1262 180.935 55.3486 180.454 55.5124C179.972 55.6729 179.491 55.7532 179.009 55.7532C178.364 55.7532 177.788 55.6294 177.284 55.382C176.782 55.1312 176.391 54.7817 176.11 54.3337C175.829 53.8856 175.688 53.3723 175.688 52.7938C175.688 52.2186 175.821 51.707 176.085 51.2589C176.352 50.8108 176.725 50.463 177.203 50.2155C177.681 49.9681 178.227 49.8444 178.839 49.8444C179.44 49.8444 179.969 49.9798 180.424 50.2507C180.882 50.5182 181.236 50.896 181.487 51.3843C181.738 51.8691 181.863 52.4309 181.863 53.0696H176.652ZM178.823 50.6118C178.436 50.6118 178.088 50.682 177.78 50.8225C177.476 50.9596 177.227 51.1585 177.033 51.4194C176.842 51.6769 176.718 51.9812 176.662 52.3323H180.895C180.835 51.9778 180.711 51.6718 180.524 51.4144C180.34 51.1569 180.103 50.9596 179.812 50.8225C179.524 50.682 179.195 50.6118 178.823 50.6118Z" fill="black"/>
<path d="M166.593 54.7299L170.57 49.9747H171.764V55.6227H170.851V50.8425L166.853 55.6227H165.68V49.9747H166.593V54.7299Z" fill="black"/>
<path d="M158.983 49.9747H164.802V50.7321H162.354V55.6227H161.431V50.7321H158.983V49.9747Z" fill="black"/>
<path d="M158.796 53.4759C158.723 53.9207 158.54 54.3169 158.249 54.6647C157.962 55.0091 157.592 55.2767 157.141 55.4673C156.689 55.6579 156.194 55.7532 155.656 55.7532C155.034 55.7532 154.481 55.6294 153.996 55.382C153.511 55.1312 153.133 54.7834 152.862 54.3387C152.595 53.8906 152.461 53.3773 152.461 52.7988C152.461 52.2203 152.595 51.7086 152.862 51.2639C153.133 50.8158 153.511 50.468 153.996 50.2206C154.481 49.9698 155.034 49.8444 155.656 49.8444C156.194 49.8444 156.689 49.9397 157.141 50.1303C157.592 50.3209 157.962 50.5901 158.249 50.9378C158.54 51.2823 158.723 51.6785 158.796 52.1266H157.848C157.778 51.819 157.641 51.5515 157.437 51.3241C157.236 51.0933 156.982 50.9178 156.674 50.7974C156.367 50.6737 156.027 50.6118 155.656 50.6118C155.205 50.6118 154.808 50.7021 154.467 50.8827C154.126 51.0599 153.864 51.314 153.68 51.6451C153.496 51.9728 153.404 52.3574 153.404 52.7988C153.404 53.2402 153.496 53.6264 153.68 53.9575C153.864 54.2852 154.126 54.5393 154.467 54.7199C154.808 54.8971 155.205 54.9857 155.656 54.9857C156.031 54.9857 156.372 54.9239 156.679 54.8001C156.987 54.6764 157.241 54.5009 157.442 54.2735C157.646 54.0461 157.781 53.7802 157.848 53.4759H158.796Z" fill="black"/>
<path d="M151.421 49.9748L151.156 52.7988L151.421 55.6228H150.478L150.333 54.0728C150.029 54.6012 149.642 55.0142 149.174 55.3118C148.709 55.606 148.193 55.7532 147.624 55.7532C147.076 55.7532 146.586 55.6294 146.155 55.382C145.723 55.1312 145.386 54.7817 145.141 54.3337C144.901 53.8856 144.78 53.3739 144.78 52.7988C144.78 52.2236 144.901 51.712 145.141 51.2639C145.386 50.8158 145.723 50.468 146.155 50.2206C146.586 49.9698 147.076 49.8444 147.624 49.8444C148.193 49.8444 148.709 49.9915 149.174 50.2858C149.642 50.58 150.029 50.9913 150.333 51.5197L150.478 49.9748H151.421ZM147.78 54.9757C148.365 54.9757 148.888 54.7801 149.35 54.3888C149.811 53.9942 150.172 53.4642 150.433 52.7988C150.172 52.1367 149.81 51.6083 149.345 51.2137C148.883 50.8191 148.362 50.6218 147.78 50.6218C147.385 50.6218 147.031 50.7138 146.716 50.8977C146.405 51.0816 146.161 51.3391 145.984 51.6702C145.81 52.0012 145.723 52.3774 145.723 52.7988C145.723 53.2235 145.81 53.6013 145.984 53.9324C146.161 54.2601 146.405 54.5159 146.716 54.6998C147.031 54.8837 147.385 54.9757 147.78 54.9757Z" fill="black"/>
<path d="M141.094 49.8444C141.642 49.8444 142.132 49.9698 142.563 50.2206C142.995 50.468 143.331 50.8158 143.571 51.2639C143.816 51.712 143.938 52.2236 143.938 52.7988C143.938 53.3739 143.816 53.8856 143.571 54.3337C143.331 54.7817 142.995 55.1312 142.563 55.382C142.132 55.6294 141.642 55.7532 141.094 55.7532C140.502 55.7532 139.965 55.5927 139.483 55.2716C139.002 54.9506 138.611 54.5059 138.31 53.9374V57.278H137.387V49.9748H138.31V51.6551C138.611 51.0866 139.002 50.6436 139.483 50.3259C139.965 50.0049 140.502 49.8444 141.094 49.8444ZM140.938 54.9757C141.333 54.9757 141.685 54.8837 141.996 54.6998C142.311 54.5159 142.555 54.2601 142.729 53.9324C142.906 53.6013 142.995 53.2235 142.995 52.7988C142.995 52.3774 142.906 52.0012 142.729 51.6702C142.555 51.3391 142.311 51.0816 141.996 50.8977C141.685 50.7138 141.333 50.6218 140.938 50.6218C140.356 50.6218 139.833 50.8191 139.368 51.2137C138.907 51.6083 138.545 52.1367 138.285 52.7988C138.545 53.4642 138.907 53.9942 139.368 54.3888C139.829 54.7801 140.353 54.9757 140.938 54.9757Z" fill="black"/>
<path d="M128.231 49.9747H134.05V50.7321H131.602V55.6227H130.679V50.7321H128.231V49.9747Z" fill="black"/>
<path d="M122.779 53.0696C122.823 53.4609 122.952 53.802 123.166 54.0929C123.383 54.3805 123.671 54.6012 124.028 54.755C124.386 54.9088 124.798 54.9857 125.262 54.9857C125.72 54.9857 126.172 54.9105 126.617 54.76C127.061 54.6062 127.464 54.3922 127.826 54.118V54.8453C127.478 55.1262 127.063 55.3486 126.582 55.5124C126.1 55.6729 125.619 55.7532 125.137 55.7532C124.492 55.7532 123.916 55.6294 123.411 55.382C122.91 55.1312 122.519 54.7817 122.238 54.3337C121.957 53.8856 121.816 53.3723 121.816 52.7938C121.816 52.2186 121.948 51.707 122.213 51.2589C122.48 50.8108 122.853 50.463 123.331 50.2155C123.809 49.9681 124.354 49.8444 124.966 49.8444C125.568 49.8444 126.097 49.9798 126.551 50.2507C127.01 50.5182 127.364 50.896 127.615 51.3843C127.866 51.8691 127.991 52.4309 127.991 53.0696H122.779ZM124.951 50.6118C124.563 50.6118 124.216 50.682 123.908 50.8225C123.604 50.9596 123.355 51.1585 123.161 51.4194C122.97 51.6769 122.846 51.9812 122.79 52.3323H127.023C126.963 51.9778 126.839 51.6718 126.652 51.4144C126.468 51.1569 126.23 50.9596 125.94 50.8225C125.652 50.682 125.323 50.6118 124.951 50.6118Z" fill="black"/>
<path d="M120.287 54.8753H121.346V57.0874H120.528V55.6227H114.509V57.0874H113.691V54.8753H114.429C114.656 54.6312 114.825 54.2684 114.935 53.7869C115.046 53.302 115.101 52.69 115.101 51.951C115.101 51.3424 115.066 50.6837 114.996 49.9747H120.287V54.8753ZM119.364 54.8854V50.7221H115.913C115.95 51.1769 115.969 51.6451 115.969 52.1266C115.969 52.7553 115.92 53.3053 115.823 53.7768C115.73 54.2483 115.592 54.6178 115.412 54.8854H119.364Z" fill="black"/>
<path d="M112.985 49.9747H113.968L110.883 56.1695C110.673 56.5941 110.41 56.9068 110.096 57.1074C109.782 57.3081 109.415 57.4084 108.997 57.4084C108.716 57.4084 108.461 57.3733 108.23 57.3031C107.999 57.2328 107.772 57.1258 107.548 56.982V56.2497C107.775 56.3935 107.993 56.4972 108.2 56.5607C108.411 56.6242 108.646 56.656 108.907 56.656C109.198 56.656 109.447 56.5891 109.654 56.4554C109.862 56.325 110.034 56.116 110.171 55.8284L110.357 55.4421H109.94L107.257 49.9747H108.275L110.618 54.9004L112.985 49.9747Z" fill="black"/>
<path d="M104.144 50.346C104.716 50.346 105.221 50.458 105.659 50.6821C106.101 50.9061 106.443 51.2204 106.688 51.6251C106.932 52.0297 107.054 52.4945 107.054 53.0195C107.054 53.5646 106.923 54.0444 106.662 54.4591C106.405 54.8704 106.039 55.1897 105.564 55.4171C105.092 55.6412 104.544 55.7532 103.919 55.7532C103.193 55.7532 102.569 55.6044 102.048 55.3068C101.526 55.0092 101.126 54.5795 100.849 54.0177C100.571 53.4526 100.433 52.7804 100.433 52.0013C100.433 51.2221 100.566 50.55 100.834 49.9848C101.101 49.4164 101.493 48.97 102.008 48.6456C102.523 48.3212 103.148 48.1289 103.884 48.0687C104.499 48.0186 104.962 47.9768 105.273 47.9433C105.587 47.9066 105.836 47.8698 106.02 47.833C106.204 47.7929 106.383 47.7394 106.557 47.6725V48.5102C106.38 48.5938 106.099 48.6623 105.714 48.7158C105.33 48.766 104.785 48.8094 104.079 48.8462C103.153 48.8964 102.449 49.189 101.968 49.724C101.489 50.2591 101.25 51.0148 101.25 51.9912V52.1267C101.504 51.5582 101.882 51.1201 102.384 50.8125C102.889 50.5015 103.476 50.346 104.144 50.346ZM103.944 54.9858C104.375 54.9858 104.755 54.9055 105.082 54.745C105.41 54.5811 105.663 54.3521 105.84 54.0578C106.02 53.7635 106.111 53.4225 106.111 53.0346C106.111 52.6467 106.02 52.3056 105.84 52.0113C105.663 51.717 105.41 51.4896 105.082 51.3291C104.755 51.1686 104.375 51.0884 103.944 51.0884C103.355 51.0884 102.842 51.2505 102.404 51.5749C101.966 51.8959 101.64 52.3524 101.426 52.9443C101.506 53.3656 101.66 53.7301 101.887 54.0378C102.118 54.3454 102.409 54.5811 102.76 54.745C103.111 54.9055 103.506 54.9858 103.944 54.9858Z" fill="black"/>
<path d="M91.2361 54.73L95.2138 49.9749H96.4076V55.6228H95.4947V50.8426L91.497 55.6228H90.3232V49.9749H91.2361V54.73ZM93.3027 49.3579C92.751 49.3579 92.3062 49.2158 91.9685 48.9315C91.6307 48.644 91.4251 48.236 91.3515 47.7076H92.139C92.1992 48.032 92.3313 48.2845 92.5353 48.4651C92.7393 48.6423 92.9951 48.7309 93.3027 48.7309C93.6104 48.7309 93.8662 48.6423 94.0702 48.4651C94.2742 48.2845 94.4062 48.032 94.4664 47.7076H95.2489C95.1787 48.236 94.9747 48.644 94.637 48.9315C94.2992 49.2158 93.8545 49.3579 93.3027 49.3579Z" fill="black"/>
<path d="M85.0019 51.9009C85.4332 51.9009 85.8128 51.9795 86.1405 52.1366C86.4682 52.2904 86.7223 52.5078 86.9029 52.7887C87.0835 53.0696 87.1738 53.394 87.1738 53.7618C87.1738 54.1296 87.0835 54.4557 86.9029 54.7399C86.7223 55.0208 86.4682 55.2382 86.1405 55.392C85.8128 55.5458 85.4349 55.6227 85.0069 55.6227H81.7314V49.9747H82.6544V51.9009H85.0019ZM87.9011 55.6227V49.9747H88.824V55.6227H87.9011ZM84.9216 54.8954C85.1858 54.8954 85.4165 54.8503 85.6138 54.76C85.8111 54.6663 85.9633 54.5342 86.0703 54.3637C86.1773 54.1898 86.2308 53.9875 86.2308 53.7568C86.2308 53.526 86.1773 53.3254 86.0703 53.1549C85.9633 52.981 85.8111 52.8472 85.6138 52.7536C85.4165 52.66 85.1858 52.6131 84.9216 52.6131H82.6544V54.8954H84.9216Z" fill="black"/>
<path d="M77.7175 49.8444C78.266 49.8444 78.7558 49.9698 79.1872 50.2206C79.6186 50.468 79.9547 50.8158 80.1954 51.2639C80.4395 51.712 80.5616 52.2236 80.5616 52.7988C80.5616 53.3739 80.4395 53.8856 80.1954 54.3337C79.9547 54.7817 79.6186 55.1312 79.1872 55.382C78.7558 55.6294 78.266 55.7532 77.7175 55.7532C77.1257 55.7532 76.589 55.5927 76.1074 55.2716C75.6259 54.9506 75.2346 54.5059 74.9337 53.9374V57.278H74.0107V49.9748H74.9337V51.6551C75.2346 51.0866 75.6259 50.6436 76.1074 50.3259C76.589 50.0049 77.1257 49.8444 77.7175 49.8444ZM77.562 54.9757C77.9566 54.9757 78.3094 54.8837 78.6204 54.6998C78.9347 54.5159 79.1789 54.2601 79.3527 53.9324C79.53 53.6013 79.6186 53.2235 79.6186 52.7988C79.6186 52.3774 79.53 52.0012 79.3527 51.6702C79.1789 51.3391 78.9347 51.0816 78.6204 50.8977C78.3094 50.7138 77.9566 50.6218 77.562 50.6218C76.9802 50.6218 76.4569 50.8191 75.992 51.2137C75.5306 51.6083 75.1694 52.1367 74.9086 52.7988C75.1694 53.4642 75.5306 53.9942 75.992 54.3888C76.4535 54.7801 76.9769 54.9757 77.562 54.9757Z" fill="black"/>
<path d="M69.5012 55.7532C68.8424 55.7532 68.2589 55.6294 67.7506 55.382C67.2423 55.1345 66.8477 54.7868 66.5668 54.3387C66.286 53.8906 66.1455 53.3773 66.1455 52.7988C66.1455 52.2203 66.286 51.707 66.5668 51.2589C66.8477 50.8108 67.2423 50.463 67.7506 50.2155C68.2589 49.9681 68.8424 49.8444 69.5012 49.8444C70.16 49.8444 70.7435 49.9681 71.2518 50.2155C71.76 50.463 72.1546 50.8108 72.4355 51.2589C72.7164 51.707 72.8569 52.2203 72.8569 52.7988C72.8569 53.3773 72.7164 53.8906 72.4355 54.3387C72.1546 54.7868 71.76 55.1345 71.2518 55.382C70.7435 55.6294 70.16 55.7532 69.5012 55.7532ZM69.5012 54.9857C69.9894 54.9857 70.4141 54.8971 70.7752 54.7199C71.1397 54.5393 71.4206 54.2852 71.6179 53.9575C71.8152 53.6264 71.9139 53.2402 71.9139 52.7988C71.9139 52.3607 71.8152 51.9761 71.6179 51.6451C71.4206 51.314 71.1397 51.0599 70.7752 50.8827C70.4141 50.7021 69.9894 50.6118 69.5012 50.6118C69.013 50.6118 68.5866 50.7021 68.2221 50.8827C67.861 51.0599 67.5817 51.314 67.3844 51.6451C67.1872 51.9761 67.0885 52.3607 67.0885 52.7988C67.0885 53.2402 67.1872 53.6264 67.3844 53.9575C67.5817 54.2852 67.861 54.5393 68.2221 54.7199C68.5866 54.8971 69.013 54.9857 69.5012 54.9857Z" fill="black"/>
<path d="M60.1045 49.9747H65.923V50.7321H63.4752V55.6227H62.5523V50.7321H60.1045V49.9747Z" fill="black"/>
<path d="M56.5305 55.7532C55.8717 55.7532 55.2882 55.6294 54.7799 55.382C54.2716 55.1345 53.877 54.7868 53.5961 54.3387C53.3152 53.8906 53.1748 53.3773 53.1748 52.7988C53.1748 52.2203 53.3152 51.707 53.5961 51.2589C53.877 50.8108 54.2716 50.463 54.7799 50.2155C55.2882 49.9681 55.8717 49.8444 56.5305 49.8444C57.1892 49.8444 57.7728 49.9681 58.2811 50.2155C58.7893 50.463 59.1839 50.8108 59.4648 51.2589C59.7457 51.707 59.8862 52.2203 59.8862 52.7988C59.8862 53.3773 59.7457 53.8906 59.4648 54.3387C59.1839 54.7868 58.7893 55.1345 58.2811 55.382C57.7728 55.6294 57.1892 55.7532 56.5305 55.7532ZM56.5305 54.9857C57.0187 54.9857 57.4434 54.8971 57.8045 54.7199C58.169 54.5393 58.4499 54.2852 58.6472 53.9575C58.8445 53.6264 58.9432 53.2402 58.9432 52.7988C58.9432 52.3607 58.8445 51.9761 58.6472 51.6451C58.4499 51.314 58.169 51.0599 57.8045 50.8827C57.4434 50.7021 57.0187 50.6118 56.5305 50.6118C56.0423 50.6118 55.6159 50.7021 55.2514 50.8827C54.8903 51.0599 54.611 51.314 54.4137 51.6451C54.2165 51.9761 54.1178 52.3607 54.1178 52.7988C54.1178 53.2402 54.2165 53.6264 54.4137 53.9575C54.611 54.2852 54.8903 54.5393 55.2514 54.7199C55.6159 54.8971 56.0423 54.9857 56.5305 54.9857Z" fill="black"/>
<path d="M50.8138 52.3573L53.0158 55.6227H51.9123L50.2169 53.0596L48.055 55.6227H47.1973V49.9747H48.1202V54.3587L51.7518 49.9747H52.8252L50.8138 52.3573Z" fill="black"/>
<path d="M43.3498 53.4759C43.2762 53.9207 43.094 54.3169 42.8031 54.6647C42.5155 55.0091 42.146 55.2767 41.6945 55.4673C41.2431 55.6579 40.7482 55.7532 40.2098 55.7532C39.5878 55.7532 39.0344 55.6294 38.5495 55.382C38.0647 55.1312 37.6868 54.7834 37.4159 54.3387C37.1484 53.8906 37.0146 53.3773 37.0146 52.7988C37.0146 52.2203 37.1484 51.7086 37.4159 51.2639C37.6868 50.8158 38.0647 50.468 38.5495 50.2206C39.0344 49.9698 39.5878 49.8444 40.2098 49.8444C40.7482 49.8444 41.2431 49.9397 41.6945 50.1303C42.146 50.3209 42.5155 50.5901 42.8031 50.9378C43.094 51.2823 43.2762 51.6785 43.3498 52.1266H42.4018C42.3316 51.819 42.1945 51.5515 41.9905 51.3241C41.7899 51.0933 41.5357 50.9178 41.2281 50.7974C40.9204 50.6737 40.581 50.6118 40.2098 50.6118C39.7584 50.6118 39.3621 50.7021 39.021 50.8827C38.6799 51.0599 38.4174 51.314 38.2335 51.6451C38.0496 51.9728 37.9576 52.3574 37.9576 52.7988C37.9576 53.2402 38.0496 53.6264 38.2335 53.9575C38.4174 54.2852 38.6799 54.5393 39.021 54.7199C39.3621 54.8971 39.7584 54.9857 40.2098 54.9857C40.5843 54.9857 40.9254 54.9239 41.2331 54.8001C41.5407 54.6764 41.7949 54.5009 41.9955 54.2735C42.1995 54.0461 42.3349 53.7802 42.4018 53.4759H43.3498Z" fill="black"/>
<path d="M33.3386 49.8444C33.887 49.8444 34.3769 49.9698 34.8083 50.2206C35.2397 50.468 35.5758 50.8158 35.8165 51.2639C36.0606 51.712 36.1827 52.2236 36.1827 52.7988C36.1827 53.3739 36.0606 53.8856 35.8165 54.3337C35.5758 54.7817 35.2397 55.1312 34.8083 55.382C34.3769 55.6294 33.887 55.7532 33.3386 55.7532C32.7468 55.7532 32.21 55.5927 31.7285 55.2716C31.247 54.9506 30.8557 54.5059 30.5548 53.9374V57.278H29.6318V49.9748H30.5548V51.6551C30.8557 51.0866 31.247 50.6436 31.7285 50.3259C32.21 50.0049 32.7468 49.8444 33.3386 49.8444ZM33.1831 54.9757C33.5777 54.9757 33.9305 54.8837 34.2415 54.6998C34.5558 54.5159 34.8 54.2601 34.9738 53.9324C35.1511 53.6013 35.2397 53.2235 35.2397 52.7988C35.2397 52.3774 35.1511 52.0012 34.9738 51.6702C34.8 51.3391 34.5558 51.0816 34.2415 50.8977C33.9305 50.7138 33.5777 50.6218 33.1831 50.6218C32.6013 50.6218 32.078 50.8191 31.6131 51.2137C31.1517 51.6083 30.7905 52.1367 30.5297 52.7988C30.7905 53.4642 31.1517 53.9942 31.6131 54.3888C32.0746 54.7801 32.5979 54.9757 33.1831 54.9757Z" fill="black"/>
<path d="M27.7917 49.9747H28.7748L25.69 56.1695C25.4794 56.5941 25.2168 56.9068 24.9025 57.1074C24.5882 57.3081 24.222 57.4084 23.804 57.4084C23.5231 57.4084 23.2673 57.3733 23.0366 57.3031C22.8058 57.2328 22.5784 57.1258 22.3544 56.982V56.2497C22.5818 56.3935 22.7992 56.4972 23.0065 56.5607C23.2171 56.6242 23.4529 56.656 23.7137 56.656C24.0047 56.656 24.2538 56.5891 24.4611 56.4554C24.6684 56.325 24.8407 56.116 24.9778 55.8284L25.1633 55.4421H24.747L22.0635 49.9747H23.0817L25.4242 54.9004L27.7917 49.9747Z" fill="black"/>
<path d="M21.8361 53.4759C21.7626 53.9207 21.5803 54.3169 21.2894 54.6647C21.0018 55.0091 20.6323 55.2767 20.1809 55.4673C19.7294 55.6579 19.2345 55.7532 18.6961 55.7532C18.0742 55.7532 17.5207 55.6294 17.0359 55.382C16.551 55.1312 16.1731 54.7834 15.9023 54.3387C15.6347 53.8906 15.501 53.3773 15.501 52.7988C15.501 52.2203 15.6347 51.7086 15.9023 51.2639C16.1731 50.8158 16.551 50.468 17.0359 50.2206C17.5207 49.9698 18.0742 49.8444 18.6961 49.8444C19.2345 49.8444 19.7294 49.9397 20.1809 50.1303C20.6323 50.3209 21.0018 50.5901 21.2894 50.9378C21.5803 51.2823 21.7626 51.6785 21.8361 52.1266H20.8881C20.8179 51.819 20.6808 51.5515 20.4768 51.3241C20.2762 51.0933 20.022 50.9178 19.7144 50.7974C19.4067 50.6737 19.0673 50.6118 18.6961 50.6118C18.2447 50.6118 17.8485 50.7021 17.5074 50.8827C17.1663 51.0599 16.9038 51.314 16.7199 51.6451C16.5359 51.9728 16.444 52.3574 16.444 52.7988C16.444 53.2402 16.5359 53.6264 16.7199 53.9575C16.9038 54.2852 17.1663 54.5393 17.5074 54.7199C17.8485 54.8971 18.2447 54.9857 18.6961 54.9857C19.0707 54.9857 19.4118 54.9239 19.7194 54.8001C20.0271 54.6764 20.2812 54.5009 20.4818 54.2735C20.6858 54.0461 20.8212 53.7802 20.8881 53.4759H21.8361Z" fill="black"/>
<path d="M9.47869 53.0696C9.52216 53.4609 9.65091 53.802 9.86492 54.0929C10.0823 54.3805 10.3699 54.6012 10.7277 54.755C11.0855 54.9088 11.4968 54.9857 11.9616 54.9857C12.4197 54.9857 12.8712 54.9105 13.3159 54.76C13.7607 54.6062 14.1636 54.3922 14.5248 54.118V54.8453C14.177 55.1262 13.7623 55.3486 13.2808 55.5124C12.7993 55.6729 12.3177 55.7532 11.8362 55.7532C11.1908 55.7532 10.6156 55.6294 10.1107 55.382C9.60911 55.1312 9.21786 54.7817 8.93697 54.3337C8.65607 53.8856 8.51562 53.3723 8.51562 52.7938C8.51562 52.2186 8.64771 51.707 8.91189 51.2589C9.1794 50.8108 9.55226 50.463 10.0304 50.2155C10.5086 49.9681 11.0537 49.8444 11.6657 49.8444C12.2676 49.8444 12.7959 49.9798 13.2507 50.2507C13.7088 50.5182 14.0633 50.896 14.3141 51.3843C14.5649 51.8691 14.6903 52.4309 14.6903 53.0696H9.47869ZM11.6506 50.6118C11.2627 50.6118 10.9149 50.682 10.6073 50.8225C10.303 50.9596 10.0539 51.1585 9.8599 51.4194C9.6693 51.6769 9.54557 51.9812 9.48872 52.3323H13.7222C13.662 51.9778 13.5383 51.6718 13.351 51.4144C13.1671 51.1569 12.9297 50.9596 12.6388 50.8225C12.3512 50.682 12.0218 50.6118 11.6506 50.6118Z" fill="black"/>
<path d="M4.83961 49.8444C5.38803 49.8444 5.87792 49.9698 6.30929 50.2206C6.74067 50.468 7.07674 50.8158 7.3175 51.2639C7.56161 51.712 7.68367 52.2236 7.68367 52.7988C7.68367 53.3739 7.56161 53.8856 7.3175 54.3337C7.07674 54.7817 6.74067 55.1312 6.30929 55.382C5.87792 55.6294 5.38803 55.7532 4.83961 55.7532C4.24773 55.7532 3.71102 55.5927 3.22949 55.2716C2.74795 54.9506 2.35671 54.5059 2.05575 53.9374V57.278H1.13281V49.9748H2.05575V51.6551C2.35671 51.0866 2.74795 50.6436 3.22949 50.3259C3.71102 50.0049 4.24773 49.8444 4.83961 49.8444ZM4.68412 54.9757C5.07871 54.9757 5.4315 54.8837 5.74249 54.6998C6.05682 54.5159 6.30093 54.2601 6.47482 53.9324C6.65205 53.6013 6.74067 53.2235 6.74067 52.7988C6.74067 52.3774 6.65205 52.0012 6.47482 51.6702C6.30093 51.3391 6.05682 51.0816 5.74249 50.8977C5.4315 50.7138 5.07871 50.6218 4.68412 50.6218C4.10227 50.6218 3.57893 50.8191 3.11412 51.2137C2.65265 51.6083 2.2915 52.1367 2.03067 52.7988C2.2915 53.4642 2.65265 53.9942 3.11412 54.3888C3.57559 54.7801 4.09892 54.9757 4.68412 54.9757Z" fill="black"/>
<path d="M227.935 34.2104L227.669 37.0344L227.935 39.8584H226.992L226.847 38.3084C226.542 38.8368 226.156 39.2497 225.688 39.5474C225.223 39.8416 224.706 39.9888 224.138 39.9888C223.59 39.9888 223.1 39.865 222.668 39.6176C222.237 39.3668 221.899 39.0173 221.655 38.5692C221.414 38.1212 221.294 37.6095 221.294 37.0344C221.294 36.4592 221.414 35.9476 221.655 35.4995C221.899 35.0514 222.237 34.7036 222.668 34.4562C223.1 34.2054 223.59 34.08 224.138 34.08C224.706 34.08 225.223 34.2271 225.688 34.5214C226.156 34.8156 226.542 35.2269 226.847 35.7553L226.992 34.2104H227.935ZM224.293 39.2113C224.879 39.2113 225.402 39.0157 225.863 38.6244C226.325 38.2298 226.686 37.6998 226.947 37.0344C226.686 36.3723 226.323 35.8439 225.858 35.4493C225.397 35.0547 224.875 34.8574 224.293 34.8574C223.899 34.8574 223.544 34.9494 223.23 35.1333C222.919 35.3172 222.675 35.5747 222.498 35.9058C222.324 36.2368 222.237 36.613 222.237 37.0344C222.237 37.459 222.324 37.8369 222.498 38.168C222.675 38.4957 222.919 38.7515 223.23 38.9354C223.544 39.1193 223.899 39.2113 224.293 39.2113Z" fill="black"/>
<path d="M219.075 36.9842C219.513 37.0645 219.851 37.2149 220.088 37.4356C220.329 37.653 220.449 37.9272 220.449 38.2583C220.449 38.5993 220.339 38.9003 220.118 39.1611C219.901 39.422 219.582 39.6259 219.16 39.7731C218.742 39.9169 218.244 39.9888 217.666 39.9888C217.104 39.9888 216.607 39.9102 216.176 39.753C215.744 39.5958 215.403 39.3701 215.153 39.0759C214.905 38.7816 214.768 38.4355 214.741 38.0376H215.644C215.698 38.4255 215.898 38.7214 216.246 38.9254C216.594 39.1294 217.067 39.2314 217.666 39.2314C218.251 39.2314 218.702 39.1478 219.02 38.9806C219.341 38.81 219.501 38.5542 219.501 38.2131C219.501 37.9289 219.368 37.7182 219.1 37.5811C218.833 37.4407 218.415 37.3704 217.846 37.3704H216.667V36.6782H217.816C218.147 36.6782 218.426 36.6398 218.654 36.5629C218.884 36.4859 219.055 36.3806 219.165 36.2469C219.279 36.1097 219.336 35.9559 219.336 35.7854C219.336 35.4844 219.187 35.252 218.889 35.0882C218.595 34.921 218.197 34.8374 217.696 34.8374C217.151 34.8374 216.709 34.931 216.371 35.1183C216.034 35.3055 215.835 35.5781 215.774 35.9359H214.872C214.912 35.5781 215.051 35.2604 215.288 34.9828C215.525 34.7019 215.853 34.4812 216.271 34.3207C216.689 34.1602 217.176 34.08 217.731 34.08C218.242 34.08 218.69 34.1485 219.075 34.2856C219.46 34.4227 219.755 34.6133 219.963 34.8574C220.173 35.0982 220.279 35.3724 220.279 35.68C220.279 35.981 220.175 36.2485 219.968 36.4826C219.764 36.7133 219.466 36.8805 219.075 36.9842Z" fill="black"/>
<path d="M210.904 34.2102H211.887L208.802 40.4049C208.592 40.8296 208.329 41.1423 208.015 41.3429C207.7 41.5435 207.334 41.6439 206.916 41.6439C206.635 41.6439 206.38 41.6088 206.149 41.5385C205.918 41.4683 205.691 41.3613 205.467 41.2175V40.4852C205.694 40.629 205.911 40.7326 206.119 40.7962C206.329 40.8597 206.565 40.8915 206.826 40.8915C207.117 40.8915 207.366 40.8246 207.573 40.6908C207.781 40.5604 207.953 40.3514 208.09 40.0638L208.276 39.6776H207.859L205.176 34.2102H206.194L208.536 39.1359L210.904 34.2102Z" fill="black"/>
<path d="M199.092 34.2102H204.91V34.9676H202.463V39.8582H201.54V34.9676H199.092V34.2102Z" fill="black"/>
<path d="M198.338 34.2104L198.073 37.0344L198.338 39.8584H197.395L197.25 38.3084C196.946 38.8368 196.559 39.2497 196.091 39.5474C195.626 39.8416 195.11 39.9888 194.541 39.9888C193.993 39.9888 193.503 39.865 193.072 39.6176C192.64 39.3668 192.303 39.0173 192.058 38.5692C191.818 38.1212 191.697 37.6095 191.697 37.0344C191.697 36.4592 191.818 35.9476 192.058 35.4995C192.303 35.0514 192.64 34.7036 193.072 34.4562C193.503 34.2054 193.993 34.08 194.541 34.08C195.11 34.08 195.626 34.2271 196.091 34.5214C196.559 34.8156 196.946 35.2269 197.25 35.7553L197.395 34.2104H198.338ZM194.697 39.2113C195.282 39.2113 195.805 39.0157 196.267 38.6244C196.728 38.2298 197.089 37.6998 197.35 37.0344C197.089 36.3723 196.727 35.8439 196.262 35.4493C195.8 35.0547 195.279 34.8574 194.697 34.8574C194.302 34.8574 193.948 34.9494 193.633 35.1333C193.322 35.3172 193.078 35.5747 192.901 35.9058C192.727 36.2368 192.64 36.613 192.64 37.0344C192.64 37.459 192.727 37.8369 192.901 38.168C193.078 38.4957 193.322 38.7515 193.633 38.9354C193.948 39.1193 194.302 39.2113 194.697 39.2113Z" fill="black"/>
<path d="M190.524 34.2102V39.8582H189.601V34.9576H186.15C186.217 35.7769 186.25 36.4406 186.25 36.9489C186.25 37.6512 186.188 38.223 186.065 38.6644C185.941 39.1058 185.749 39.4318 185.488 39.6425C185.23 39.8532 184.896 39.9585 184.484 39.9585C184.157 39.9585 183.861 39.8849 183.597 39.7378V39.0105C183.841 39.1142 184.07 39.166 184.284 39.166C184.545 39.166 184.757 39.0857 184.921 38.9252C185.085 38.7647 185.205 38.5122 185.282 38.1678C185.359 37.8234 185.397 37.3736 185.397 36.8185C185.397 36.1163 185.349 35.2468 185.252 34.2102H190.524Z" fill="black"/>
<path d="M177.024 39.8582V34.2102H182.763V39.8582H181.84V34.9576H177.947V39.8582H177.024Z" fill="black"/>
<path d="M169.797 34.08C170.449 34.08 171.026 34.2037 171.527 34.4511C172.029 34.6986 172.419 35.0464 172.696 35.4945C172.974 35.9426 173.112 36.4559 173.112 37.0344C173.112 37.6129 172.974 38.1262 172.696 38.5743C172.419 39.0224 172.029 39.3701 171.527 39.6176C171.026 39.865 170.449 39.9888 169.797 39.9888C169.192 39.9888 168.648 39.8801 168.167 39.6627C167.688 39.4454 167.306 39.1411 167.018 38.7498C166.73 38.3552 166.56 37.8988 166.506 37.3805H165.202V39.8584H164.279V34.2104H165.202V36.6331H166.511C166.575 36.1248 166.752 35.6784 167.043 35.2938C167.334 34.9093 167.715 34.6116 168.187 34.401C168.662 34.187 169.198 34.08 169.797 34.08ZM169.797 39.2213C170.278 39.2213 170.696 39.1327 171.051 38.9555C171.409 38.7749 171.685 38.5208 171.878 38.193C172.072 37.862 172.169 37.4758 172.169 37.0344C172.169 36.593 172.072 36.2084 171.878 35.8807C171.685 35.5496 171.409 35.2955 171.051 35.1183C170.696 34.9377 170.278 34.8474 169.797 34.8474C169.319 34.8474 168.901 34.9377 168.543 35.1183C168.185 35.2955 167.909 35.5496 167.715 35.8807C167.521 36.2117 167.424 36.5963 167.424 37.0344C167.424 37.4724 167.521 37.857 167.715 38.188C167.909 38.5191 168.185 38.7749 168.543 38.9555C168.901 39.1327 169.319 39.2213 169.797 39.2213Z" fill="black"/>
<path d="M162.439 34.2102H163.422L160.337 40.4049C160.127 40.8296 159.864 41.1423 159.55 41.3429C159.236 41.5435 158.869 41.6439 158.451 41.6439C158.171 41.6439 157.915 41.6088 157.684 41.5385C157.453 41.4683 157.226 41.3613 157.002 41.2175V40.4852C157.229 40.629 157.447 40.7326 157.654 40.7962C157.865 40.8597 158.1 40.8915 158.361 40.8915C158.652 40.8915 158.901 40.8246 159.109 40.6908C159.316 40.5604 159.488 40.3514 159.625 40.0638L159.811 39.6776H159.394L156.711 34.2102H157.729L160.072 39.1359L162.439 34.2102Z" fill="black"/>
<path d="M155.067 36.9238C155.508 37.0041 155.844 37.1629 156.075 37.4004C156.306 37.6378 156.421 37.9454 156.421 38.3233C156.421 38.6443 156.344 38.9202 156.19 39.1509C156.037 39.3817 155.812 39.5572 155.518 39.6776C155.227 39.798 154.876 39.8582 154.465 39.8582H150.492L150.753 37.0342L150.492 34.2102H154.329C154.874 34.2102 155.299 34.3373 155.603 34.5914C155.908 34.8422 156.06 35.1933 156.06 35.6448C156.06 35.9558 155.975 36.2199 155.804 36.4373C155.634 36.6513 155.388 36.8135 155.067 36.9238ZM155.122 35.7451C155.122 35.4776 155.035 35.2719 154.861 35.1281C154.687 34.981 154.426 34.9074 154.079 34.9074H151.44L151.616 36.663H153.998C154.36 36.663 154.637 36.5811 154.831 36.4172C155.025 36.2534 155.122 36.0293 155.122 35.7451ZM154.319 39.161C154.711 39.161 155.002 39.0857 155.192 38.9352C155.386 38.7814 155.483 38.5574 155.483 38.2631C155.483 37.9655 155.363 37.7348 155.122 37.5709C154.885 37.407 154.53 37.3251 154.059 37.3251H151.621L151.44 39.161H154.319Z" fill="black"/>
<path d="M146.103 39.9888C145.444 39.9888 144.86 39.865 144.352 39.6176C143.844 39.3701 143.449 39.0224 143.168 38.5743C142.888 38.1262 142.747 37.6129 142.747 37.0344C142.747 36.4559 142.888 35.9426 143.168 35.4945C143.449 35.0464 143.844 34.6986 144.352 34.4511C144.86 34.2037 145.444 34.08 146.103 34.08C146.762 34.08 147.345 34.2037 147.853 34.4511C148.362 34.6986 148.756 35.0464 149.037 35.4945C149.318 35.9426 149.458 36.4559 149.458 37.0344C149.458 37.6129 149.318 38.1262 149.037 38.5743C148.756 39.0224 148.362 39.3701 147.853 39.6176C147.345 39.865 146.762 39.9888 146.103 39.9888ZM146.103 39.2213C146.591 39.2213 147.016 39.1327 147.377 38.9555C147.741 38.7749 148.022 38.5208 148.219 38.193C148.417 37.862 148.515 37.4758 148.515 37.0344C148.515 36.5963 148.417 36.2117 148.219 35.8807C148.022 35.5496 147.741 35.2955 147.377 35.1183C147.016 34.9377 146.591 34.8474 146.103 34.8474C145.615 34.8474 145.188 34.9377 144.824 35.1183C144.463 35.2955 144.183 35.5496 143.986 35.8807C143.789 36.2117 143.69 36.5963 143.69 37.0344C143.69 37.4758 143.789 37.862 143.986 38.193C144.183 38.5208 144.463 38.7749 144.824 38.9555C145.188 39.1327 145.615 39.2213 146.103 39.2213Z" fill="black"/>
<path d="M140.544 36.9842C140.982 37.0645 141.32 37.2149 141.557 37.4356C141.798 37.653 141.918 37.9272 141.918 38.2583C141.918 38.5993 141.808 38.9003 141.587 39.1611C141.37 39.422 141.05 39.6259 140.629 39.7731C140.211 39.9169 139.713 39.9888 139.134 39.9888C138.572 39.9888 138.076 39.9102 137.645 39.753C137.213 39.5958 136.872 39.3701 136.621 39.0759C136.374 38.7816 136.237 38.4355 136.21 38.0376H137.113C137.166 38.4255 137.367 38.7214 137.715 38.9254C138.063 39.1294 138.536 39.2314 139.134 39.2314C139.719 39.2314 140.171 39.1478 140.489 38.9806C140.81 38.81 140.97 38.5542 140.97 38.2131C140.97 37.9289 140.836 37.7182 140.569 37.5811C140.301 37.4407 139.883 37.3704 139.315 37.3704H138.136V36.6782H139.285C139.616 36.6782 139.895 36.6398 140.122 36.5629C140.353 36.4859 140.524 36.3806 140.634 36.2469C140.748 36.1097 140.805 35.9559 140.805 35.7854C140.805 35.4844 140.656 35.252 140.358 35.0882C140.064 34.921 139.666 34.8374 139.164 34.8374C138.619 34.8374 138.178 34.931 137.84 35.1183C137.502 35.3055 137.303 35.5781 137.243 35.9359H136.34C136.38 35.5781 136.519 35.2604 136.757 34.9828C136.994 34.7019 137.322 34.4812 137.74 34.3207C138.158 34.1602 138.644 34.08 139.199 34.08C139.711 34.08 140.159 34.1485 140.544 34.2856C140.928 34.4227 141.224 34.6133 141.432 34.8574C141.642 35.0982 141.748 35.3724 141.748 35.68C141.748 35.981 141.644 36.2485 141.437 36.4826C141.233 36.7133 140.935 36.8805 140.544 36.9842Z" fill="black"/>
<path d="M135.277 34.2104L135.011 37.0344L135.277 39.8584H134.334L134.188 38.3084C133.884 38.8368 133.498 39.2497 133.03 39.5474C132.565 39.8416 132.048 39.9888 131.48 39.9888C130.931 39.9888 130.441 39.865 130.01 39.6176C129.579 39.3668 129.241 39.0173 128.997 38.5692C128.756 38.1212 128.636 37.6095 128.636 37.0344C128.636 36.4592 128.756 35.9476 128.997 35.4995C129.241 35.0514 129.579 34.7036 130.01 34.4562C130.441 34.2054 130.931 34.08 131.48 34.08C132.048 34.08 132.565 34.2271 133.03 34.5214C133.498 34.8156 133.884 35.2269 134.188 35.7553L134.334 34.2104H135.277ZM131.635 39.2113C132.22 39.2113 132.744 39.0157 133.205 38.6244C133.667 38.2298 134.028 37.6998 134.289 37.0344C134.028 36.3723 133.665 35.8439 133.2 35.4493C132.739 35.0547 132.217 34.8574 131.635 34.8574C131.241 34.8574 130.886 34.9494 130.572 35.1333C130.261 35.3172 130.017 35.5747 129.84 35.9058C129.666 36.2368 129.579 36.613 129.579 37.0344C129.579 37.459 129.666 37.8369 129.84 38.168C130.017 38.4957 130.261 38.7515 130.572 38.9354C130.886 39.1193 131.241 39.2113 131.635 39.2113Z" fill="black"/>
<path d="M124.948 34.08C125.496 34.08 125.986 34.2054 126.418 34.4562C126.849 34.7036 127.185 35.0514 127.426 35.4995C127.67 35.9476 127.792 36.4592 127.792 37.0344C127.792 37.6095 127.67 38.1212 127.426 38.5692C127.185 39.0173 126.849 39.3668 126.418 39.6176C125.986 39.865 125.496 39.9888 124.948 39.9888C124.356 39.9888 123.819 39.8283 123.338 39.5072C122.856 39.1862 122.465 38.7415 122.164 38.173V41.5136H121.241V34.2104H122.164V35.8907C122.465 35.3222 122.856 34.8792 123.338 34.5615C123.819 34.2405 124.356 34.08 124.948 34.08ZM124.793 39.2113C125.187 39.2113 125.54 39.1193 125.851 38.9354C126.165 38.7515 126.409 38.4957 126.583 38.168C126.76 37.8369 126.849 37.459 126.849 37.0344C126.849 36.613 126.76 36.2368 126.583 35.9058C126.409 35.5747 126.165 35.3172 125.851 35.1333C125.54 34.9494 125.187 34.8574 124.793 34.8574C124.211 34.8574 123.687 35.0547 123.223 35.4493C122.761 35.8439 122.4 36.3723 122.139 37.0344C122.4 37.6998 122.761 38.2298 123.223 38.6244C123.684 39.0157 124.207 39.2113 124.793 39.2113Z" fill="black"/>
<path d="M116.732 39.9888C116.073 39.9888 115.489 39.865 114.981 39.6176C114.473 39.3701 114.078 39.0224 113.797 38.5743C113.516 38.1262 113.376 37.6129 113.376 37.0344C113.376 36.4559 113.516 35.9426 113.797 35.4945C114.078 35.0464 114.473 34.6986 114.981 34.4511C115.489 34.2037 116.073 34.08 116.732 34.08C117.39 34.08 117.974 34.2037 118.482 34.4511C118.991 34.6986 119.385 35.0464 119.666 35.4945C119.947 35.9426 120.087 36.4559 120.087 37.0344C120.087 37.6129 119.947 38.1262 119.666 38.5743C119.385 39.0224 118.991 39.3701 118.482 39.6176C117.974 39.865 117.39 39.9888 116.732 39.9888ZM116.732 39.2213C117.22 39.2213 117.645 39.1327 118.006 38.9555C118.37 38.7749 118.651 38.5208 118.848 38.193C119.046 37.862 119.144 37.4758 119.144 37.0344C119.144 36.5963 119.046 36.2117 118.848 35.8807C118.651 35.5496 118.37 35.2955 118.006 35.1183C117.645 34.9377 117.22 34.8474 116.732 34.8474C116.243 34.8474 115.817 34.9377 115.453 35.1183C115.091 35.2955 114.812 35.5496 114.615 35.8807C114.418 36.2117 114.319 36.5963 114.319 37.0344C114.319 37.4758 114.418 37.862 114.615 38.193C114.812 38.5208 115.091 38.7749 115.453 38.9555C115.817 39.1327 116.243 39.2213 116.732 39.2213Z" fill="black"/>
<path d="M111.309 36.6329V34.2102H112.227V39.8582H111.309V37.3803H107.366V39.8582H106.448V34.2102H107.366V36.6329H111.309Z" fill="black"/>
<path d="M104.039 36.6329V34.2102H104.957V39.8582H104.039V37.3803H100.097V39.8582H99.1787V34.2102H100.097V36.6329H104.039Z" fill="black"/>
<path d="M92.5096 38.9653L96.4872 34.2102H97.681V39.8582H96.7681V35.078L92.7704 39.8582H91.5967V34.2102H92.5096V38.9653Z" fill="black"/>
<path d="M89.5843 39.1108H90.6426V41.3228H89.825V39.8582H83.8059V41.3228H82.9883V39.1108H83.7256C83.953 38.8667 84.1219 38.5039 84.2322 38.0223C84.3426 37.5375 84.3978 36.9255 84.3978 36.1865C84.3978 35.5779 84.3627 34.9191 84.2924 34.2102H89.5843V39.1108ZM88.6613 39.1208V34.9576H85.2104C85.2471 35.4124 85.2655 35.8805 85.2655 36.3621C85.2655 36.9907 85.217 37.5408 85.1201 38.0123C85.0264 38.4838 84.8893 38.8533 84.7088 39.1208H88.6613Z" fill="black"/>
<path d="M77.381 37.3052C77.4245 37.6965 77.5533 38.0376 77.7673 38.3285C77.9846 38.6161 78.2722 38.8368 78.63 38.9906C78.9878 39.1444 79.3991 39.2213 79.8639 39.2213C80.3221 39.2213 80.7735 39.1461 81.2183 38.9956C81.663 38.8418 82.0659 38.6278 82.4271 38.3536V39.0809C82.0793 39.3618 81.6647 39.5841 81.1831 39.748C80.7016 39.9085 80.2201 39.9888 79.7385 39.9888C79.0932 39.9888 78.518 39.865 78.0131 39.6176C77.5115 39.3668 77.1202 39.0173 76.8393 38.5692C76.5584 38.1212 76.418 37.6079 76.418 37.0293C76.418 36.4542 76.5501 35.9426 76.8142 35.4945C77.0817 35.0464 77.4546 34.6986 77.9328 34.4511C78.411 34.2037 78.9561 34.08 79.568 34.08C80.1699 34.08 80.6983 34.2154 81.153 34.4862C81.6112 34.7538 81.9656 35.1316 82.2164 35.6199C82.4672 36.1047 82.5926 36.6665 82.5926 37.3052H77.381ZM79.5529 34.8474C79.165 34.8474 78.8173 34.9176 78.5096 35.0581C78.2053 35.1952 77.9562 35.3941 77.7622 35.655C77.5716 35.9125 77.4479 36.2168 77.3911 36.5679H81.6245C81.5644 36.2134 81.4406 35.9074 81.2534 35.65C81.0694 35.3925 80.832 35.1952 80.5411 35.0581C80.2535 34.9176 79.9241 34.8474 79.5529 34.8474Z" fill="black"/>
<path d="M67.3221 38.9653L71.2998 34.2102H72.4936V39.8582H71.5806V35.078L67.5829 39.8582H66.4092V34.2102H67.3221V38.9653Z" fill="black"/>
<path d="M64.9095 34.2102V39.8582H63.9865V34.9576H60.5356C60.6024 35.7769 60.6359 36.4406 60.6359 36.9489C60.6359 37.6512 60.574 38.223 60.4503 38.6644C60.3266 39.1058 60.1343 39.4318 59.8734 39.6425C59.616 39.8532 59.2816 39.9585 58.8702 39.9585C58.5425 39.9585 58.2466 39.8849 57.9824 39.7378V39.0105C58.2265 39.1142 58.4556 39.166 58.6696 39.166C58.9304 39.166 59.1428 39.0857 59.3066 38.9252C59.4705 38.7647 59.5909 38.5122 59.6678 38.1678C59.7447 37.8234 59.7832 37.3736 59.7832 36.8185C59.7832 36.1163 59.7347 35.2468 59.6377 34.2102H64.9095Z" fill="black"/>
<path d="M57.2642 34.2104L56.9983 37.0344L57.2642 39.8584H56.3212L56.1757 38.3084C55.8714 38.8368 55.4852 39.2497 55.017 39.5474C54.5522 39.8416 54.0356 39.9888 53.4671 39.9888C52.9187 39.9888 52.4288 39.865 51.9974 39.6176C51.566 39.3668 51.2283 39.0173 50.9842 38.5692C50.7434 38.1212 50.623 37.6095 50.623 37.0344C50.623 36.4592 50.7434 35.9476 50.9842 35.4995C51.2283 35.0514 51.566 34.7036 51.9974 34.4562C52.4288 34.2054 52.9187 34.08 53.4671 34.08C54.0356 34.08 54.5522 34.2271 55.017 34.5214C55.4852 34.8156 55.8714 35.2269 56.1757 35.7553L56.3212 34.2104H57.2642ZM53.6226 39.2113C54.2078 39.2113 54.7311 39.0157 55.1926 38.6244C55.6541 38.2298 56.0152 37.6998 56.276 37.0344C56.0152 36.3723 55.6524 35.8439 55.1876 35.4493C54.7261 35.0547 54.2045 34.8574 53.6226 34.8574C53.228 34.8574 52.8735 34.9494 52.5592 35.1333C52.2482 35.3172 52.0041 35.5747 51.8269 35.9058C51.653 36.2368 51.5661 36.613 51.5661 37.0344C51.5661 37.459 51.653 37.8369 51.8269 38.168C52.0041 38.4957 52.2482 38.7515 52.5592 38.9354C52.8735 39.1193 53.228 39.2113 53.6226 39.2113Z" fill="black"/>
<path d="M49.4495 34.2102V39.8582H48.5266V34.9576H45.0756C45.1425 35.7769 45.1759 36.4406 45.1759 36.9489C45.1759 37.6512 45.114 38.223 44.9903 38.6644C44.8666 39.1058 44.6743 39.4318 44.4135 39.6425C44.156 39.8532 43.8216 39.9585 43.4103 39.9585C43.0826 39.9585 42.7866 39.8849 42.5225 39.7378V39.0105C42.7666 39.1142 42.9956 39.166 43.2096 39.166C43.4705 39.166 43.6828 39.0857 43.8467 38.9252C44.0105 38.7647 44.1309 38.5122 44.2078 38.1678C44.2847 37.8234 44.3232 37.3736 44.3232 36.8185C44.3232 36.1163 44.2747 35.2468 44.1777 34.2102H49.4495Z" fill="black"/>
<path d="M36.9494 37.3052C36.9929 37.6965 37.1216 38.0376 37.3356 38.3285C37.553 38.6161 37.8406 38.8368 38.1984 38.9906C38.5562 39.1444 38.9675 39.2213 39.4323 39.2213C39.8904 39.2213 40.3419 39.1461 40.7866 38.9956C41.2314 38.8418 41.6343 38.6278 41.9955 38.3536V39.0809C41.6477 39.3618 41.233 39.5841 40.7515 39.748C40.27 39.9085 39.7884 39.9888 39.3069 39.9888C38.6615 39.9888 38.0863 39.865 37.5814 39.6176C37.0798 39.3668 36.6886 39.0173 36.4077 38.5692C36.1268 38.1212 35.9863 37.6079 35.9863 37.0293C35.9863 36.4542 36.1184 35.9426 36.3826 35.4945C36.6501 35.0464 37.023 34.6986 37.5011 34.4511C37.9793 34.2037 38.5244 34.08 39.1364 34.08C39.7383 34.08 40.2666 34.2154 40.7214 34.4862C41.1795 34.7538 41.534 35.1316 41.7848 35.6199C42.0356 36.1047 42.161 36.6665 42.161 37.3052H36.9494ZM39.1213 34.8474C38.7334 34.8474 38.3856 34.9176 38.078 35.0581C37.7737 35.1952 37.5246 35.3941 37.3306 35.655C37.14 35.9125 37.0163 36.2168 36.9594 36.5679H41.1929C41.1327 36.2134 41.009 35.9074 40.8217 35.65C40.6378 35.3925 40.4004 35.1952 40.1095 35.0581C39.8219 34.9176 39.4925 34.8474 39.1213 34.8474Z" fill="black"/>
<path d="M34.4573 39.1108H35.5157V41.3228H34.6981V39.8582H28.6789V41.3228H27.8613V39.1108H28.5987C28.8261 38.8667 28.9949 38.5039 29.1053 38.0223C29.2156 37.5375 29.2708 36.9255 29.2708 36.1865C29.2708 35.5779 29.2357 34.9191 29.1655 34.2102H34.4573V39.1108ZM33.5344 39.1208V34.9576H30.0834C30.1202 35.4124 30.1386 35.8805 30.1386 36.3621C30.1386 36.9907 30.0901 37.5408 29.9931 38.0123C29.8995 38.4838 29.7624 38.8533 29.5818 39.1208H33.5344Z" fill="black"/>
<path d="M27.5969 37.7115C27.5233 38.1563 27.3411 38.5525 27.0501 38.9003C26.7626 39.2447 26.3931 39.5122 25.9416 39.7029C25.4902 39.8935 24.9953 39.9888 24.4569 39.9888C23.8349 39.9888 23.2815 39.865 22.7966 39.6176C22.3117 39.3668 21.9339 39.019 21.663 38.5743C21.3955 38.1262 21.2617 37.6129 21.2617 37.0344C21.2617 36.4559 21.3955 35.9442 21.663 35.4995C21.9339 35.0514 22.3117 34.7036 22.7966 34.4562C23.2815 34.2054 23.8349 34.08 24.4569 34.08C24.9953 34.08 25.4902 34.1753 25.9416 34.3659C26.3931 34.5565 26.7626 34.8257 27.0501 35.1734C27.3411 35.5179 27.5233 35.9141 27.5969 36.3622H26.6489C26.5786 36.0546 26.4415 35.7871 26.2376 35.5597C26.0369 35.3289 25.7828 35.1534 25.4751 35.033C25.1675 34.9093 24.8281 34.8474 24.4569 34.8474C24.0055 34.8474 23.6092 34.9377 23.2681 35.1183C22.927 35.2955 22.6645 35.5496 22.4806 35.8807C22.2967 36.2084 22.2047 36.593 22.2047 37.0344C22.2047 37.4758 22.2967 37.862 22.4806 38.193C22.6645 38.5208 22.927 38.7749 23.2681 38.9555C23.6092 39.1327 24.0055 39.2213 24.4569 39.2213C24.8314 39.2213 25.1725 39.1595 25.4801 39.0357C25.7878 38.912 26.0419 38.7364 26.2426 38.5091C26.4466 38.2817 26.582 38.0158 26.6489 37.7115H27.5969Z" fill="black"/>
<path d="M13.5136 36.1363C13.9449 36.1363 14.3245 36.2149 14.6522 36.3721C14.9799 36.5259 15.2341 36.7433 15.4146 37.0242C15.5952 37.3051 15.6855 37.6294 15.6855 37.9973C15.6855 38.3651 15.5952 38.6911 15.4146 38.9754C15.2341 39.2563 14.9799 39.4736 14.6522 39.6275C14.3245 39.7813 13.9466 39.8582 13.5186 39.8582H10.2432V34.2102H11.1661V36.1363H13.5136ZM16.4128 39.8582V34.2102H17.3357V39.8582H16.4128ZM13.4333 39.1309C13.6975 39.1309 13.9282 39.0857 14.1255 38.9954C14.3228 38.9018 14.475 38.7697 14.582 38.5992C14.689 38.4253 14.7425 38.223 14.7425 37.9922C14.7425 37.7615 14.689 37.5609 14.582 37.3903C14.475 37.2164 14.3228 37.0827 14.1255 36.9891C13.9282 36.8954 13.6975 36.8486 13.4333 36.8486H11.1661V39.1309H13.4333Z" fill="black"/>
<path d="M4.94997 39.0105L7.38773 34.2102H8.75207V39.8582H7.87929V35.073L5.39639 39.8582H4.4885L2.00559 35.083V39.8582H1.13281V34.2102H2.49716L4.94997 39.0105Z" fill="black"/>
<path d="M219.819 18.4458H220.802L217.717 24.6405C217.507 25.0652 217.244 25.3779 216.93 25.5785C216.616 25.7791 216.249 25.8795 215.831 25.8795C215.55 25.8795 215.295 25.8444 215.064 25.7741C214.833 25.7039 214.606 25.5969 214.382 25.4531V24.7208C214.609 24.8646 214.827 24.9682 215.034 25.0318C215.244 25.0953 215.48 25.1271 215.741 25.1271C216.032 25.1271 216.281 25.0602 216.488 24.9264C216.696 24.796 216.868 24.587 217.005 24.2994L217.191 23.9132H216.774L214.091 18.4458H215.109L217.452 23.3715L219.819 18.4458Z" fill="black"/>
<path d="M209.409 23.2461L211.847 18.4458H213.211V24.0938H212.338V19.3085L209.855 24.0938H208.947L206.465 19.3186V24.0938H205.592V18.4458H206.956L209.409 23.2461Z" fill="black"/>
<path d="M201.082 24.2242C200.423 24.2242 199.84 24.1005 199.332 23.8531C198.823 23.6056 198.429 23.2578 198.148 22.8097C197.867 22.3616 197.727 21.8483 197.727 21.2698C197.727 20.6913 197.867 20.178 198.148 19.7299C198.429 19.2818 198.823 18.9341 199.332 18.6866C199.84 18.4392 200.423 18.3154 201.082 18.3154C201.741 18.3154 202.325 18.4392 202.833 18.6866C203.341 18.9341 203.736 19.2818 204.017 19.7299C204.297 20.178 204.438 20.6913 204.438 21.2698C204.438 21.8483 204.297 22.3616 204.017 22.8097C203.736 23.2578 203.341 23.6056 202.833 23.8531C202.325 24.1005 201.741 24.2242 201.082 24.2242ZM201.082 23.4568C201.57 23.4568 201.995 23.3682 202.356 23.191C202.721 23.0104 203.002 22.7562 203.199 22.4285C203.396 22.0975 203.495 21.7112 203.495 21.2698C203.495 20.8318 203.396 20.4472 203.199 20.1162C203.002 19.7851 202.721 19.531 202.356 19.3537C201.995 19.1732 201.57 19.0829 201.082 19.0829C200.594 19.0829 200.168 19.1732 199.803 19.3537C199.442 19.531 199.163 19.7851 198.966 20.1162C198.768 20.4472 198.67 20.8318 198.67 21.2698C198.67 21.7112 198.768 22.0975 198.966 22.4285C199.163 22.7562 199.442 23.0104 199.803 23.191C200.168 23.3682 200.594 23.4568 201.082 23.4568Z" fill="black"/>
<path d="M191.686 18.4458H197.504V19.2032H195.056V24.0938H194.133V19.2032H191.686V18.4458Z" fill="black"/>
<path d="M188.247 18.3154C188.872 18.3154 189.429 18.4408 189.917 18.6916C190.405 18.9391 190.785 19.2869 191.056 19.7349C191.326 20.183 191.462 20.6947 191.462 21.2698C191.462 21.845 191.326 22.3566 191.056 22.8047C190.785 23.2528 190.405 23.6023 189.917 23.8531C189.429 24.1005 188.872 24.2242 188.247 24.2242C187.712 24.2242 187.222 24.1323 186.777 23.9484C186.332 23.7611 185.964 23.5019 185.673 23.1709C185.382 22.8398 185.192 22.462 185.102 22.0373H186.055C186.131 22.3215 186.272 22.5723 186.476 22.7897C186.683 23.007 186.939 23.1759 187.243 23.2963C187.548 23.4167 187.882 23.4769 188.247 23.4769C188.665 23.4769 189.036 23.4033 189.36 23.2562C189.684 23.1057 189.945 22.8917 190.143 22.6141C190.343 22.3332 190.467 22.0038 190.514 21.626H187.304V20.9137H190.514C190.467 20.5358 190.343 20.2081 190.143 19.9306C189.945 19.6497 189.684 19.4357 189.36 19.2885C189.036 19.138 188.665 19.0628 188.247 19.0628C187.882 19.0628 187.548 19.123 187.243 19.2434C186.942 19.3638 186.688 19.5326 186.481 19.75C186.277 19.9674 186.135 20.2165 186.055 20.4974H185.102C185.192 20.076 185.382 19.6998 185.673 19.3688C185.964 19.0377 186.332 18.7802 186.777 18.5963C187.222 18.4091 187.712 18.3154 188.247 18.3154Z" fill="black"/>
<path d="M181.009 24.2242C180.35 24.2242 179.767 24.1005 179.258 23.8531C178.75 23.6056 178.356 23.2578 178.075 22.8097C177.794 22.3616 177.653 21.8483 177.653 21.2698C177.653 20.6913 177.794 20.178 178.075 19.7299C178.356 19.2818 178.75 18.9341 179.258 18.6866C179.767 18.4392 180.35 18.3154 181.009 18.3154C181.668 18.3154 182.251 18.4392 182.76 18.6866C183.268 18.9341 183.662 19.2818 183.943 19.7299C184.224 20.178 184.365 20.6913 184.365 21.2698C184.365 21.8483 184.224 22.3616 183.943 22.8097C183.662 23.2578 183.268 23.6056 182.76 23.8531C182.251 24.1005 181.668 24.2242 181.009 24.2242ZM181.009 23.4568C181.497 23.4568 181.922 23.3682 182.283 23.191C182.648 23.0104 182.928 22.7562 183.126 22.4285C183.323 22.0975 183.422 21.7112 183.422 21.2698C183.422 20.8318 183.323 20.4472 183.126 20.1162C182.928 19.7851 182.648 19.531 182.283 19.3537C181.922 19.1732 181.497 19.0829 181.009 19.0829C180.521 19.0829 180.094 19.1732 179.73 19.3537C179.369 19.531 179.09 19.7851 178.892 20.1162C178.695 20.4472 178.596 20.8318 178.596 21.2698C178.596 21.7112 178.695 22.0975 178.892 22.4285C179.09 22.7562 179.369 23.0104 179.73 23.191C180.094 23.3682 180.521 23.4568 181.009 23.4568Z" fill="black"/>
<path d="M170.765 24.0938V18.4458H176.503V24.0938H175.58V19.1932H171.688V24.0938H170.765Z" fill="black"/>
<path d="M166.443 22.8647C166.631 22.8647 166.786 22.9316 166.91 23.0654C167.034 23.1958 167.096 23.3563 167.096 23.5469C167.096 23.6807 167.07 23.8178 167.02 23.9582C166.97 24.0987 166.878 24.2843 166.744 24.515L166.243 25.4229H165.666L166.263 24.1187C166.122 24.082 166.009 24.0067 165.922 23.893C165.835 23.7793 165.791 23.6489 165.791 23.5018C165.791 23.3245 165.853 23.1741 165.977 23.0503C166.104 22.9266 166.26 22.8647 166.443 22.8647Z" fill="black"/>
<path d="M163.521 21.1594C163.962 21.2397 164.298 21.3985 164.529 21.636C164.76 21.8734 164.875 22.181 164.875 22.5589C164.875 22.8799 164.798 23.1558 164.644 23.3865C164.491 23.6173 164.267 23.7928 163.972 23.9132C163.681 24.0336 163.33 24.0938 162.919 24.0938H158.946L159.207 21.2698L158.946 18.4458H162.784C163.329 18.4458 163.753 18.5729 164.058 18.827C164.362 19.0778 164.514 19.4289 164.514 19.8804C164.514 20.1914 164.429 20.4555 164.258 20.6729C164.088 20.8869 163.842 21.0491 163.521 21.1594ZM163.576 19.9807C163.576 19.7132 163.489 19.5075 163.315 19.3637C163.141 19.2166 162.88 19.143 162.533 19.143H159.894L160.07 20.8986H162.452C162.814 20.8986 163.091 20.8167 163.285 20.6528C163.479 20.489 163.576 20.2649 163.576 19.9807ZM162.773 23.3966C163.165 23.3966 163.456 23.3213 163.646 23.1708C163.84 23.017 163.937 22.793 163.937 22.4987C163.937 22.2011 163.817 21.9704 163.576 21.8065C163.339 21.6426 162.984 21.5607 162.513 21.5607H160.075L159.894 23.3966H162.773Z" fill="black"/>
<path d="M154.557 24.2242C153.898 24.2242 153.315 24.1005 152.806 23.8531C152.298 23.6056 151.903 23.2578 151.623 22.8097C151.342 22.3616 151.201 21.8483 151.201 21.2698C151.201 20.6913 151.342 20.178 151.623 19.7299C151.903 19.2818 152.298 18.9341 152.806 18.6866C153.315 18.4392 153.898 18.3154 154.557 18.3154C155.216 18.3154 155.799 18.4392 156.307 18.6866C156.816 18.9341 157.21 19.2818 157.491 19.7299C157.772 20.178 157.913 20.6913 157.913 21.2698C157.913 21.8483 157.772 22.3616 157.491 22.8097C157.21 23.2578 156.816 23.6056 156.307 23.8531C155.799 24.1005 155.216 24.2242 154.557 24.2242ZM154.557 23.4568C155.045 23.4568 155.47 23.3682 155.831 23.191C156.195 23.0104 156.476 22.7562 156.674 22.4285C156.871 22.0975 156.97 21.7112 156.97 21.2698C156.97 20.8318 156.871 20.4472 156.674 20.1162C156.476 19.7851 156.195 19.531 155.831 19.3537C155.47 19.1732 155.045 19.0829 154.557 19.0829C154.069 19.0829 153.642 19.1732 153.278 19.3537C152.917 19.531 152.637 19.7851 152.44 20.1162C152.243 20.4472 152.144 20.8318 152.144 21.2698C152.144 21.7112 152.243 22.0975 152.44 22.4285C152.637 22.7562 152.917 23.0104 153.278 23.191C153.642 23.3682 154.069 23.4568 154.557 23.4568Z" fill="black"/>
<path d="M148.841 20.8284L151.043 24.0938H149.94L148.244 21.5306L146.082 24.0938H145.225V18.4458H146.148V22.8298L149.779 18.4458H150.853L148.841 20.8284Z" fill="black"/>
<path d="M138.555 23.2009L142.532 18.4458H143.726V24.0938H142.813V19.3136L138.815 24.0938H137.642V18.4458H138.555V23.2009Z" fill="black"/>
<path d="M135.233 20.8685V18.4458H136.15V24.0938H135.233V21.6159H131.29V24.0938H130.372V18.4458H131.29V20.8685H135.233Z" fill="black"/>
<path d="M123.676 18.4458H129.494V19.2032H127.047V24.0938H126.124V19.2032H123.676V18.4458Z" fill="black"/>
<path d="M123.488 21.947C123.414 22.3917 123.232 22.788 122.941 23.1358C122.653 23.4802 122.284 23.7477 121.832 23.9383C121.381 24.1289 120.886 24.2242 120.348 24.2242C119.726 24.2242 119.172 24.1005 118.687 23.8531C118.202 23.6023 117.824 23.2545 117.554 22.8097C117.286 22.3616 117.152 21.8483 117.152 21.2698C117.152 20.6913 117.286 20.1797 117.554 19.7349C117.824 19.2869 118.202 18.9391 118.687 18.6916C119.172 18.4408 119.726 18.3154 120.348 18.3154C120.886 18.3154 121.381 18.4107 121.832 18.6013C122.284 18.7919 122.653 19.0611 122.941 19.4089C123.232 19.7533 123.414 20.1496 123.488 20.5977H122.539C122.469 20.29 122.332 20.0225 122.128 19.7951C121.928 19.5644 121.673 19.3888 121.366 19.2685C121.058 19.1447 120.719 19.0829 120.348 19.0829C119.896 19.0829 119.5 19.1732 119.159 19.3537C118.818 19.531 118.555 19.7851 118.371 20.1162C118.187 20.4439 118.095 20.8284 118.095 21.2698C118.095 21.7112 118.187 22.0975 118.371 22.4285C118.555 22.7562 118.818 23.0104 119.159 23.191C119.5 23.3682 119.896 23.4568 120.348 23.4568C120.722 23.4568 121.063 23.3949 121.371 23.2712C121.678 23.1475 121.933 22.9719 122.133 22.7445C122.337 22.5171 122.473 22.2513 122.539 21.947H123.488Z" fill="black"/>
<path d="M116.114 18.4458L115.848 21.2698L116.114 24.0938H115.171L115.025 22.5439C114.721 23.0722 114.335 23.4852 113.867 23.7828C113.402 24.0771 112.885 24.2242 112.317 24.2242C111.768 24.2242 111.278 24.1005 110.847 23.8531C110.416 23.6023 110.078 23.2528 109.834 22.8047C109.593 22.3566 109.473 21.845 109.473 21.2698C109.473 20.6947 109.593 20.183 109.834 19.7349C110.078 19.2869 110.416 18.9391 110.847 18.6916C111.278 18.4408 111.768 18.3154 112.317 18.3154C112.885 18.3154 113.402 18.4626 113.867 18.7568C114.335 19.0511 114.721 19.4624 115.025 19.9908L115.171 18.4458H116.114ZM112.472 23.4468C113.057 23.4468 113.581 23.2511 114.042 22.8599C114.504 22.4653 114.865 21.9353 115.126 21.2698C114.865 20.6077 114.502 20.0794 114.037 19.6848C113.576 19.2902 113.054 19.0929 112.472 19.0929C112.078 19.0929 111.723 19.1849 111.409 19.3688C111.098 19.5527 110.854 19.8102 110.676 20.1412C110.503 20.4723 110.416 20.8485 110.416 21.2698C110.416 21.6945 110.503 22.0724 110.676 22.4034C110.854 22.7312 111.098 22.987 111.409 23.1709C111.723 23.3548 112.078 23.4468 112.472 23.4468Z" fill="black"/>
<path d="M107.385 18.4458H108.308V24.0938H107.385V21.3149C107.111 21.6126 106.777 21.8416 106.382 22.0021C105.987 22.1593 105.559 22.2379 105.098 22.2379C104.335 22.2379 103.757 22.0322 103.362 21.6209C102.968 21.2096 102.771 20.6043 102.771 19.8051V18.4458H103.688V19.77C103.688 20.3285 103.821 20.7498 104.085 21.034C104.352 21.3183 104.747 21.4604 105.268 21.4604C106.058 21.4604 106.763 21.1377 107.385 20.4923V18.4458Z" fill="black"/>
<path d="M101.298 18.4458H102.281L99.1959 24.6405C98.9852 25.0652 98.7227 25.3779 98.4084 25.5785C98.094 25.7791 97.7279 25.8795 97.3099 25.8795C97.029 25.8795 96.7732 25.8444 96.5424 25.7741C96.3117 25.7039 96.0843 25.5969 95.8603 25.4531V24.7208C96.0877 24.8646 96.305 24.9682 96.5123 25.0318C96.723 25.0953 96.9588 25.1271 97.2196 25.1271C97.5105 25.1271 97.7596 25.0602 97.967 24.9264C98.1743 24.796 98.3465 24.587 98.4836 24.2994L98.6692 23.9132H98.2529L95.5693 18.4458H96.5876L98.93 23.3715L101.298 18.4458Z" fill="black"/>
<path d="M90.3564 21.1695L92.8543 24.0938H91.7809L89.7444 21.7413L87.723 24.0938H86.6797L89.1676 21.1795L86.8402 18.4458H87.9387L89.7846 20.6027L91.6405 18.4458H92.6938L90.3564 21.1695Z" fill="black"/>
<path d="M81.2795 21.5407C81.3229 21.9319 81.4517 22.273 81.6657 22.564C81.8831 22.8515 82.1706 23.0722 82.5285 23.2261C82.8863 23.3799 83.2976 23.4568 83.7624 23.4568C84.2205 23.4568 84.6719 23.3816 85.1167 23.2311C85.5614 23.0773 85.9644 22.8632 86.3255 22.589V23.3164C85.9778 23.5972 85.5631 23.8196 85.0816 23.9835C84.6 24.144 84.1185 24.2242 83.637 24.2242C82.9916 24.2242 82.4164 24.1005 81.9115 23.8531C81.4099 23.6023 81.0186 23.2528 80.7378 22.8047C80.4569 22.3566 80.3164 21.8433 80.3164 21.2648C80.3164 20.6897 80.4485 20.178 80.7127 19.7299C80.9802 19.2818 81.353 18.9341 81.8312 18.6866C82.3094 18.4392 82.8545 18.3154 83.4664 18.3154C84.0684 18.3154 84.5967 18.4509 85.0515 18.7217C85.5096 18.9892 85.8641 19.3671 86.1149 19.8553C86.3657 20.3402 86.4911 20.902 86.4911 21.5407H81.2795ZM83.4514 19.0829C83.0635 19.0829 82.7157 19.1531 82.4081 19.2935C82.1038 19.4306 81.8546 19.6296 81.6607 19.8904C81.4701 20.1479 81.3464 20.4522 81.2895 20.8034H85.523C85.4628 20.4489 85.3391 20.1429 85.1518 19.8854C84.9679 19.6279 84.7305 19.4306 84.4395 19.2935C84.152 19.1531 83.8226 19.0829 83.4514 19.0829Z" fill="black"/>
<path d="M79.5686 21.947C79.495 22.3917 79.3128 22.788 79.0218 23.1358C78.7342 23.4802 78.3647 23.7477 77.9133 23.9383C77.4619 24.1289 76.967 24.2242 76.4286 24.2242C75.8066 24.2242 75.2532 24.1005 74.7683 23.8531C74.2834 23.6023 73.9055 23.2545 73.6347 22.8097C73.3672 22.3616 73.2334 21.8483 73.2334 21.2698C73.2334 20.6913 73.3672 20.1797 73.6347 19.7349C73.9055 19.2869 74.2834 18.9391 74.7683 18.6916C75.2532 18.4408 75.8066 18.3154 76.4286 18.3154C76.967 18.3154 77.4619 18.4107 77.9133 18.6013C78.3647 18.7919 78.7342 19.0611 79.0218 19.4089C79.3128 19.7533 79.495 20.1496 79.5686 20.5977H78.6206C78.5503 20.29 78.4132 20.0225 78.2092 19.7951C78.0086 19.5644 77.7545 19.3888 77.4468 19.2685C77.1392 19.1447 76.7998 19.0829 76.4286 19.0829C75.9771 19.0829 75.5809 19.1732 75.2398 19.3537C74.8987 19.531 74.6362 19.7851 74.4523 20.1162C74.2684 20.4439 74.1764 20.8284 74.1764 21.2698C74.1764 21.7112 74.2684 22.0975 74.4523 22.4285C74.6362 22.7562 74.8987 23.0104 75.2398 23.191C75.5809 23.3682 75.9771 23.4568 76.4286 23.4568C76.8031 23.4568 77.1442 23.3949 77.4518 23.2712C77.7595 23.1475 78.0136 22.9719 78.2143 22.7445C78.4182 22.5171 78.5537 22.2513 78.6206 21.947H79.5686Z" fill="black"/>
<path d="M71.0687 21.1594C71.5101 21.2397 71.8462 21.3985 72.0769 21.636C72.3076 21.8734 72.423 22.181 72.423 22.5589C72.423 22.8799 72.3461 23.1558 72.1923 23.3865C72.0385 23.6173 71.8144 23.7928 71.5201 23.9132C71.2292 24.0336 70.8781 24.0938 70.4668 24.0938H66.4941L66.755 21.2698L66.4941 18.4458H70.3314C70.8764 18.4458 71.3011 18.5729 71.6054 18.827C71.9097 19.0778 72.0619 19.4289 72.0619 19.8804C72.0619 20.1914 71.9766 20.4555 71.8061 20.6729C71.6355 20.8869 71.3897 21.0491 71.0687 21.1594ZM71.1239 19.9807C71.1239 19.7132 71.0369 19.5075 70.863 19.3637C70.6892 19.2166 70.4283 19.143 70.0806 19.143H67.4422L67.6177 20.8986H70.0003C70.3615 20.8986 70.639 20.8167 70.833 20.6528C71.0269 20.489 71.1239 20.2649 71.1239 19.9807ZM70.3213 23.3966C70.7126 23.3966 71.0035 23.3213 71.1941 23.1708C71.3881 23.017 71.485 22.793 71.485 22.4987C71.485 22.2011 71.3646 21.9704 71.1239 21.8065C70.8865 21.6426 70.532 21.5607 70.0605 21.5607H67.6227L67.4422 23.3966H70.3213Z" fill="black"/>
<path d="M62.3551 18.4458V24.0938H61.4322V21.8767H59.6515L57.7755 24.0938H56.667L58.5881 21.8567C58.227 21.8366 57.9076 21.753 57.6301 21.6059C57.3559 21.4587 57.1435 21.2598 56.993 21.009C56.8426 20.7582 56.7673 20.4739 56.7673 20.1562C56.7673 19.8218 56.8509 19.5259 57.0181 19.2684C57.1853 19.0076 57.4194 18.8053 57.7203 18.6615C58.0213 18.5177 58.3674 18.4458 58.7586 18.4458H62.3551ZM61.4322 21.1745V19.1581H58.8991C58.5279 19.1581 58.2353 19.2484 58.0213 19.4289C57.8073 19.6095 57.7003 19.8536 57.7003 20.1613C57.7003 20.3619 57.7488 20.5391 57.8457 20.693C57.9427 20.8468 58.0815 20.9655 58.2621 21.0491C58.4426 21.1327 58.655 21.1745 58.8991 21.1745H61.4322Z" fill="black"/>
<path d="M50.3826 23.2009L54.3603 18.4458H55.5541V24.0938H54.6412V19.3136L50.6435 24.0938H49.4697V18.4458H50.3826V23.2009Z" fill="black"/>
<path d="M47.0616 20.8685V18.4458H47.9796V24.0938H47.0616V21.6159H43.1191V24.0938H42.2012V18.4458H43.1191V20.8685H47.0616Z" fill="black"/>
<path d="M40.8257 18.4458L40.5599 21.2698L40.8257 24.0938H39.8827L39.7372 22.5439C39.4329 23.0722 39.0467 23.4852 38.5786 23.7828C38.1137 24.0771 37.5971 24.2242 37.0286 24.2242C36.4802 24.2242 35.9903 24.1005 35.5589 23.8531C35.1276 23.6023 34.7898 23.2528 34.5457 22.8047C34.305 22.3566 34.1846 21.845 34.1846 21.2698C34.1846 20.6947 34.305 20.183 34.5457 19.7349C34.7898 19.2869 35.1276 18.9391 35.5589 18.6916C35.9903 18.4408 36.4802 18.3154 37.0286 18.3154C37.5971 18.3154 38.1137 18.4626 38.5786 18.7568C39.0467 19.0511 39.4329 19.4624 39.7372 19.9908L39.8827 18.4458H40.8257ZM37.1841 23.4468C37.7693 23.4468 38.2926 23.2511 38.7541 22.8599C39.2156 22.4653 39.5767 21.9353 39.8376 21.2698C39.5767 20.6077 39.2139 20.0794 38.7491 19.6848C38.2876 19.2902 37.766 19.0929 37.1841 19.0929C36.7895 19.0929 36.4351 19.1849 36.1207 19.3688C35.8097 19.5527 35.5656 19.8102 35.3884 20.1412C35.2145 20.4723 35.1276 20.8485 35.1276 21.2698C35.1276 21.6945 35.2145 22.0724 35.3884 22.4034C35.5656 22.7312 35.8097 22.987 36.1207 23.1709C36.4351 23.3548 36.7895 23.4468 37.1841 23.4468Z" fill="black"/>
<path d="M32.6263 23.3464H33.6846V25.5584H32.867V24.0938H26.8479V25.5584H26.0303V23.3464H26.7676C26.995 23.1023 27.1639 22.7395 27.2742 22.2579C27.3846 21.7731 27.4398 21.1611 27.4398 20.4221C27.4398 19.8135 27.4046 19.1547 27.3344 18.4458H32.6263V23.3464ZM31.7033 23.3564V19.1932H28.2523C28.2891 19.648 28.3075 20.1161 28.3075 20.5976C28.3075 21.2263 28.259 21.7764 28.1621 22.2479C28.0684 22.7194 27.9313 23.0889 27.7508 23.3564H31.7033Z" fill="black"/>
<path d="M20.0418 23.2009L24.0195 18.4458H25.2133V24.0938H24.3004V19.3136L20.3026 24.0938H19.1289V18.4458H20.0418V23.2009Z" fill="black"/>
<path d="M16.1408 20.8234L18.3478 24.0938H17.2443L15.5489 21.5206L13.367 24.0938H12.6547L10.4778 21.5256L8.77734 24.0938H7.67383L9.88085 20.8234L7.86443 18.4458H8.93785L12.5544 22.8047V18.4458H13.4673V22.8047L17.0838 18.4458H18.1572L16.1408 20.8234Z" fill="black"/>
<path d="M4.1467 24.2242C3.48793 24.2242 2.90441 24.1005 2.39613 23.8531C1.88784 23.6056 1.49325 23.2578 1.21236 22.8097C0.931463 22.3616 0.791016 21.8483 0.791016 21.2698C0.791016 20.6913 0.931463 20.178 1.21236 19.7299C1.49325 19.2818 1.88784 18.9341 2.39613 18.6866C2.90441 18.4392 3.48793 18.3154 4.1467 18.3154C4.80546 18.3154 5.38899 18.4392 5.89727 18.6866C6.40556 18.9341 6.80015 19.2818 7.08104 19.7299C7.36193 20.178 7.50238 20.6913 7.50238 21.2698C7.50238 21.8483 7.36193 22.3616 7.08104 22.8097C6.80015 23.2578 6.40556 23.6056 5.89727 23.8531C5.38899 24.1005 4.80546 24.2242 4.1467 24.2242ZM4.1467 23.4568C4.63492 23.4568 5.0596 23.3682 5.42075 23.191C5.78525 23.0104 6.06614 22.7562 6.26344 22.4285C6.46073 22.0975 6.55938 21.7112 6.55938 21.2698C6.55938 20.8318 6.46073 20.4472 6.26344 20.1162C6.06614 19.7851 5.78525 19.531 5.42075 19.3537C5.0596 19.1732 4.63492 19.0829 4.1467 19.0829C3.65848 19.0829 3.23212 19.1732 2.86763 19.3537C2.50648 19.531 2.22725 19.7851 2.02996 20.1162C1.83266 20.4472 1.73402 20.8318 1.73402 21.2698C1.73402 21.7112 1.83266 22.0975 2.02996 22.4285C2.22725 22.7562 2.50648 23.0104 2.86763 23.191C3.23212 23.3682 3.65848 23.4568 4.1467 23.4568Z" fill="black"/>
<path d="M183.363 2.6814V8.32938H182.44V3.42878H178.989C179.056 4.24805 179.089 4.91183 179.089 5.42011C179.089 6.12235 179.027 6.69417 178.903 7.13558C178.78 7.57698 178.587 7.90302 178.327 8.11369C178.069 8.32436 177.735 8.4297 177.323 8.4297C176.996 8.4297 176.7 8.35613 176.436 8.20899V7.48168C176.68 7.58534 176.909 7.63717 177.123 7.63717C177.384 7.63717 177.596 7.55692 177.76 7.39641C177.924 7.2359 178.044 6.98342 178.121 6.639C178.198 6.29457 178.236 5.8448 178.236 5.2897C178.236 4.58746 178.188 3.71803 178.091 2.6814H183.363Z" fill="black"/>
<path d="M175.717 2.68144L175.451 5.50543L175.717 8.32942H174.774L174.629 6.77949C174.325 7.30784 173.938 7.72082 173.47 8.01843C173.005 8.3127 172.489 8.45984 171.92 8.45984C171.372 8.45984 170.882 8.33611 170.451 8.08865C170.019 7.83786 169.681 7.48841 169.437 7.04032C169.197 6.59222 169.076 6.0806 169.076 5.50543C169.076 4.93027 169.197 4.41864 169.437 3.97054C169.681 3.52245 170.019 3.17468 170.451 2.92722C170.882 2.67642 171.372 2.55103 171.92 2.55103C172.489 2.55103 173.005 2.69816 173.47 2.99243C173.938 3.2867 174.325 3.69801 174.629 4.22636L174.774 2.68144H175.717ZM172.076 7.68236C172.661 7.68236 173.184 7.48674 173.646 7.09549C174.107 6.7009 174.468 6.17088 174.729 5.50543C174.468 4.84332 174.106 4.31497 173.641 3.92038C173.179 3.52579 172.658 3.3285 172.076 3.3285C171.681 3.3285 171.327 3.42046 171.012 3.60438C170.701 3.7883 170.457 4.04578 170.28 4.37684C170.106 4.70789 170.019 5.08409 170.019 5.50543C170.019 5.93012 170.106 6.30799 170.28 6.63904C170.457 6.96675 170.701 7.22256 171.012 7.40648C171.327 7.5904 171.681 7.68236 172.076 7.68236Z" fill="black"/>
<path d="M167.518 7.582H168.576V9.79404H167.759V8.32938H161.739V9.79404H160.922V7.582H161.659C161.887 7.33789 162.055 6.97506 162.166 6.49353C162.276 6.00866 162.331 5.39671 162.331 4.65769C162.331 4.04908 162.296 3.39032 162.226 2.6814H167.518V7.582ZM166.595 7.59203V3.42878H163.144C163.181 3.88356 163.199 4.35171 163.199 4.83325C163.199 5.46192 163.151 6.012 163.054 6.4835C162.96 6.955 162.823 7.32451 162.642 7.59203H166.595Z" fill="black"/>
<path d="M159.161 5.39504C159.603 5.47529 159.939 5.63413 160.17 5.87155C160.4 6.10897 160.516 6.41662 160.516 6.79449C160.516 7.11551 160.439 7.39139 160.285 7.62213C160.131 7.85286 159.907 8.02842 159.613 8.1488C159.322 8.26918 158.971 8.32938 158.56 8.32938H154.587L154.848 5.50539L154.587 2.6814H158.424C158.969 2.6814 159.394 2.80847 159.698 3.06261C160.002 3.31341 160.155 3.66453 160.155 4.11596C160.155 4.42695 160.069 4.69113 159.899 4.90849C159.728 5.1225 159.483 5.28468 159.161 5.39504ZM159.217 4.21628C159.217 3.94876 159.13 3.74311 158.956 3.59932C158.782 3.45218 158.521 3.37862 158.173 3.37862H155.535L155.71 5.1342H158.093C158.454 5.1342 158.732 5.05228 158.926 4.88842C159.12 4.72457 159.217 4.50052 159.217 4.21628ZM158.414 7.63216C158.805 7.63216 159.096 7.55692 159.287 7.40644C159.481 7.25262 159.578 7.02857 159.578 6.7343C159.578 6.43669 159.457 6.20595 159.217 6.04209C158.979 5.87824 158.625 5.79631 158.153 5.79631H155.716L155.535 7.63216H158.414Z" fill="black"/>
<path d="M153.332 2.68144L153.066 5.50543L153.332 8.32942H152.389L152.243 6.77949C151.939 7.30784 151.553 7.72082 151.084 8.01843C150.62 8.3127 150.103 8.45984 149.534 8.45984C148.986 8.45984 148.496 8.33611 148.065 8.08865C147.633 7.83786 147.296 7.48841 147.052 7.04032C146.811 6.59222 146.69 6.0806 146.69 5.50543C146.69 4.93027 146.811 4.41864 147.052 3.97054C147.296 3.52245 147.633 3.17468 148.065 2.92722C148.496 2.67642 148.986 2.55103 149.534 2.55103C150.103 2.55103 150.62 2.69816 151.084 2.99243C151.553 3.2867 151.939 3.69801 152.243 4.22636L152.389 2.68144H153.332ZM149.69 7.68236C150.275 7.68236 150.799 7.48674 151.26 7.09549C151.721 6.7009 152.083 6.17088 152.343 5.50543C152.083 4.84332 151.72 4.31497 151.255 3.92038C150.793 3.52579 150.272 3.3285 149.69 3.3285C149.295 3.3285 148.941 3.42046 148.627 3.60438C148.316 3.7883 148.071 4.04578 147.894 4.37684C147.72 4.70789 147.633 5.08409 147.633 5.50543C147.633 5.93012 147.72 6.30799 147.894 6.63904C148.071 6.96675 148.316 7.22256 148.627 7.40648C148.941 7.5904 149.295 7.68236 149.69 7.68236Z" fill="black"/>
<path d="M143.004 2.55103C143.552 2.55103 144.042 2.67642 144.473 2.92722C144.905 3.17468 145.241 3.52245 145.482 3.97054C145.726 4.41864 145.848 4.93027 145.848 5.50543C145.848 6.0806 145.726 6.59222 145.482 7.04032C145.241 7.48841 144.905 7.83786 144.473 8.08865C144.042 8.33611 143.552 8.45984 143.004 8.45984C142.412 8.45984 141.875 8.29932 141.394 7.9783C140.912 7.65728 140.521 7.21253 140.22 6.64406V9.98469H139.297V2.68144H140.22V4.36179C140.521 3.79331 140.912 3.35024 141.394 3.03256C141.875 2.71154 142.412 2.55103 143.004 2.55103ZM142.848 7.68236C143.243 7.68236 143.596 7.5904 143.907 7.40648C144.221 7.22256 144.465 6.96675 144.639 6.63904C144.816 6.30799 144.905 5.93012 144.905 5.50543C144.905 5.08409 144.816 4.70789 144.639 4.37684C144.465 4.04578 144.221 3.7883 143.907 3.60438C143.596 3.42046 143.243 3.3285 142.848 3.3285C142.266 3.3285 141.743 3.52579 141.278 3.92038C140.817 4.31497 140.456 4.84332 140.195 5.50543C140.456 6.17088 140.817 6.7009 141.278 7.09549C141.74 7.48674 142.263 7.68236 142.848 7.68236Z" fill="black"/>
<path d="M132.067 8.32938V2.6814H137.806V8.32938H136.883V3.42878H132.99V8.32938H132.067Z" fill="black"/>
<path d="M127.557 8.45984C126.898 8.45984 126.315 8.33611 125.806 8.08865C125.298 7.8412 124.903 7.49343 124.623 7.04533C124.342 6.59724 124.201 6.08394 124.201 5.50543C124.201 4.92692 124.342 4.41362 124.623 3.96553C124.903 3.51744 125.298 3.16966 125.806 2.92221C126.315 2.67475 126.898 2.55103 127.557 2.55103C128.216 2.55103 128.799 2.67475 129.307 2.92221C129.816 3.16966 130.21 3.51744 130.491 3.96553C130.772 4.41362 130.913 4.92692 130.913 5.50543C130.913 6.08394 130.772 6.59724 130.491 7.04533C130.21 7.49343 129.816 7.8412 129.307 8.08865C128.799 8.33611 128.216 8.45984 127.557 8.45984ZM127.557 7.69239C128.045 7.69239 128.47 7.60378 128.831 7.42655C129.195 7.24597 129.476 6.99183 129.674 6.66412C129.871 6.33307 129.97 5.94684 129.97 5.50543C129.97 5.06737 129.871 4.68281 129.674 4.35176C129.476 4.0207 129.195 3.76656 128.831 3.58933C128.47 3.40876 128.045 3.31847 127.557 3.31847C127.069 3.31847 126.642 3.40876 126.278 3.58933C125.917 3.76656 125.637 4.0207 125.44 4.35176C125.243 4.68281 125.144 5.06737 125.144 5.50543C125.144 5.94684 125.243 6.33307 125.44 6.66412C125.637 6.99183 125.917 7.24597 126.278 7.42655C126.642 7.60378 127.069 7.69239 127.557 7.69239Z" fill="black"/>
<path d="M117.271 8.45984C116.612 8.45984 116.028 8.33611 115.52 8.08865C115.012 7.8412 114.617 7.49343 114.336 7.04533C114.055 6.59724 113.915 6.08394 113.915 5.50543C113.915 4.92692 114.055 4.41362 114.336 3.96553C114.617 3.51744 115.012 3.16966 115.52 2.92221C116.028 2.67475 116.612 2.55103 117.271 2.55103C117.929 2.55103 118.513 2.67475 119.021 2.92221C119.53 3.16966 119.924 3.51744 120.205 3.96553C120.486 4.41362 120.626 4.92692 120.626 5.50543C120.626 6.08394 120.486 6.59724 120.205 7.04533C119.924 7.49343 119.53 7.8412 119.021 8.08865C118.513 8.33611 117.929 8.45984 117.271 8.45984ZM117.271 7.69239C117.759 7.69239 118.184 7.60378 118.545 7.42655C118.909 7.24597 119.19 6.99183 119.387 6.66412C119.585 6.33307 119.683 5.94684 119.683 5.50543C119.683 5.06737 119.585 4.68281 119.387 4.35176C119.19 4.0207 118.909 3.76656 118.545 3.58933C118.184 3.40876 117.759 3.31847 117.271 3.31847C116.782 3.31847 116.356 3.40876 115.992 3.58933C115.63 3.76656 115.351 4.0207 115.154 4.35176C114.957 4.68281 114.858 5.06737 114.858 5.50543C114.858 5.94684 114.957 6.33307 115.154 6.66412C115.351 6.99183 115.63 7.24597 115.992 7.42655C116.356 7.60378 116.782 7.69239 117.271 7.69239Z" fill="black"/>
<path d="M111.848 5.10411V2.6814H112.766V8.32938H111.848V5.85149H107.905V8.32938H106.987V2.6814H107.905V5.10411H111.848Z" fill="black"/>
<path d="M104.486 5.39504C104.927 5.47529 105.263 5.63413 105.494 5.87155C105.725 6.10897 105.84 6.41662 105.84 6.79449C105.84 7.11551 105.763 7.39139 105.609 7.62213C105.455 7.85286 105.231 8.02842 104.937 8.1488C104.646 8.26918 104.295 8.32938 103.884 8.32938H99.9111L100.172 5.50539L99.9111 2.6814H103.748C104.293 2.6814 104.718 2.80847 105.022 3.06261C105.327 3.31341 105.479 3.66453 105.479 4.11596C105.479 4.42695 105.394 4.69113 105.223 4.90849C105.052 5.1225 104.807 5.28468 104.486 5.39504ZM104.541 4.21628C104.541 3.94876 104.454 3.74311 104.28 3.59932C104.106 3.45218 103.845 3.37862 103.498 3.37862H100.859L101.035 5.1342H103.417C103.778 5.1342 104.056 5.05228 104.25 4.88842C104.444 4.72457 104.541 4.50052 104.541 4.21628ZM103.738 7.63216C104.13 7.63216 104.42 7.55692 104.611 7.40644C104.805 7.25262 104.902 7.02857 104.902 6.7343C104.902 6.43669 104.782 6.20595 104.541 6.04209C104.303 5.87824 103.949 5.79631 103.477 5.79631H101.04L100.859 7.63216H103.738Z" fill="black"/>
<path d="M98.6558 2.68144L98.3899 5.50543L98.6558 8.32942H97.7128L97.5673 6.77949C97.263 7.30784 96.8768 7.72082 96.4086 8.01843C95.9438 8.3127 95.4272 8.45984 94.8587 8.45984C94.3103 8.45984 93.8204 8.33611 93.389 8.08865C92.9576 7.83786 92.6199 7.48841 92.3758 7.04032C92.135 6.59222 92.0146 6.0806 92.0146 5.50543C92.0146 4.93027 92.135 4.41864 92.3758 3.97054C92.6199 3.52245 92.9576 3.17468 93.389 2.92722C93.8204 2.67642 94.3103 2.55103 94.8587 2.55103C95.4272 2.55103 95.9438 2.69816 96.4086 2.99243C96.8768 3.2867 97.263 3.69801 97.5673 4.22636L97.7128 2.68144H98.6558ZM95.0142 7.68236C95.5994 7.68236 96.1227 7.48674 96.5842 7.09549C97.0457 6.7009 97.4068 6.17088 97.6676 5.50543C97.4068 4.84332 97.044 4.31497 96.5792 3.92038C96.1177 3.52579 95.5961 3.3285 95.0142 3.3285C94.6196 3.3285 94.2651 3.42046 93.9508 3.60438C93.6398 3.7883 93.3957 4.04578 93.2185 4.37684C93.0446 4.70789 92.9577 5.08409 92.9577 5.50543C92.9577 5.93012 93.0446 6.30799 93.2185 6.63904C93.3957 6.96675 93.6398 7.22256 93.9508 7.40648C94.2651 7.5904 94.6196 7.68236 95.0142 7.68236Z" fill="black"/>
<path d="M90.4563 7.582H91.5147V9.79404H90.6971V8.32938H84.678V9.79404H83.8604V7.582H84.5977C84.8251 7.33789 84.994 6.97506 85.1043 6.49353C85.2147 6.00866 85.2698 5.39671 85.2698 4.65769C85.2698 4.04908 85.2347 3.39032 85.1645 2.6814H90.4563V7.582ZM89.5334 7.59203V3.42878H86.0824C86.1192 3.88356 86.1376 4.35171 86.1376 4.83325C86.1376 5.46192 86.0891 6.012 85.9921 6.4835C85.8985 6.955 85.7614 7.32451 85.5808 7.59203H89.5334Z" fill="black"/>
<path d="M75.4211 5.77629C75.4645 6.16754 75.5933 6.50862 75.8073 6.79955C76.0247 7.08713 76.3122 7.30784 76.6701 7.46166C77.0279 7.61548 77.4392 7.69239 77.904 7.69239C78.3621 7.69239 78.8135 7.61715 79.2583 7.46667C79.703 7.31285 80.106 7.09884 80.4671 6.82463V7.55195C80.1194 7.83284 79.7047 8.05522 79.2232 8.21907C78.7416 8.37958 78.2601 8.45984 77.7786 8.45984C77.1332 8.45984 76.558 8.33611 76.0531 8.08865C75.5515 7.83786 75.1602 7.48841 74.8794 7.04032C74.5985 6.59222 74.458 6.07892 74.458 5.50041C74.458 4.92525 74.5901 4.41362 74.8543 3.96553C75.1218 3.51744 75.4946 3.16966 75.9728 2.92221C76.451 2.67475 76.9961 2.55103 77.608 2.55103C78.21 2.55103 78.7383 2.68646 79.1931 2.95732C79.6512 3.22484 80.0057 3.60271 80.2565 4.09093C80.5073 4.5758 80.6327 5.13759 80.6327 5.77629H75.4211ZM77.593 3.31847C77.2051 3.31847 76.8573 3.38869 76.5497 3.52914C76.2454 3.66624 75.9962 3.86521 75.8023 4.12604C75.6117 4.38353 75.488 4.68783 75.4311 5.03895H79.6646C79.6044 4.68448 79.4807 4.37851 79.2934 4.12102C79.1095 3.86354 78.8721 3.66624 78.5811 3.52914C78.2936 3.38869 77.9642 3.31847 77.593 3.31847Z" fill="black"/>
<path d="M72.0714 5.05897L74.2785 8.32938H73.175L71.4796 5.75619L69.2976 8.32938H68.5854L66.4084 5.7612L64.708 8.32938H63.6045L65.8115 5.05897L63.7951 2.6814H64.8685L68.485 7.04027V2.6814H69.3979V7.04027L73.0145 2.6814H74.0879L72.0714 5.05897Z" fill="black"/>
<path d="M62.4821 2.6814H63.4653L60.3804 8.87612C60.1698 9.3008 59.9073 9.61346 59.5929 9.8141C59.2786 10.0147 58.9124 10.1151 58.4944 10.1151C58.2136 10.1151 57.9577 10.0799 57.727 10.0097C57.4963 9.9395 57.2689 9.83249 57.0448 9.6887V8.95637C57.2722 9.10016 57.4896 9.20383 57.6969 9.26736C57.9076 9.3309 58.1433 9.36267 58.4042 9.36267C58.6951 9.36267 58.9442 9.29579 59.1515 9.16203C59.3589 9.03161 59.5311 8.82261 59.6682 8.53503L59.8538 8.1488H59.4374L56.7539 2.6814H57.7721L60.1146 7.60708L62.4821 2.6814Z" fill="black"/>
<path d="M53.5188 6.18259C53.4452 6.62734 53.2629 7.0236 52.972 7.37137C52.6844 7.7158 52.3149 7.98332 51.8635 8.17393C51.4121 8.36453 50.9171 8.45984 50.3788 8.45984C49.7568 8.45984 49.2034 8.33611 48.7185 8.08865C48.2336 7.83786 47.8557 7.49008 47.5849 7.04533C47.3174 6.59724 47.1836 6.08394 47.1836 5.50543C47.1836 4.92692 47.3174 4.41529 47.5849 3.97054C47.8557 3.52245 48.2336 3.17468 48.7185 2.92722C49.2034 2.67642 49.7568 2.55103 50.3788 2.55103C50.9171 2.55103 51.4121 2.64633 51.8635 2.83694C52.3149 3.02754 52.6844 3.29673 52.972 3.64451C53.2629 3.98894 53.4452 4.3852 53.5188 4.83329H52.5707C52.5005 4.52565 52.3634 4.25813 52.1594 4.03074C51.9588 3.8 51.7047 3.62444 51.397 3.50406C51.0894 3.38033 50.7499 3.31847 50.3788 3.31847C49.9273 3.31847 49.5311 3.40876 49.19 3.58933C48.8489 3.76656 48.5864 4.0207 48.4025 4.35176C48.2186 4.67947 48.1266 5.06403 48.1266 5.50543C48.1266 5.94684 48.2186 6.33307 48.4025 6.66412C48.5864 6.99183 48.8489 7.24597 49.19 7.42655C49.5311 7.60378 49.9273 7.69239 50.3788 7.69239C50.7533 7.69239 51.0944 7.63053 51.402 7.5068C51.7097 7.38308 51.9638 7.20752 52.1645 6.98013C52.3684 6.75273 52.5039 6.48689 52.5707 6.18259H53.5188Z" fill="black"/>
<path d="M43.5076 2.55103C44.056 2.55103 44.5459 2.67642 44.9773 2.92722C45.4086 3.17468 45.7447 3.52245 45.9855 3.97054C46.2296 4.41864 46.3516 4.93027 46.3516 5.50543C46.3516 6.0806 46.2296 6.59222 45.9855 7.04032C45.7447 7.48841 45.4086 7.83786 44.9773 8.08865C44.5459 8.33611 44.056 8.45984 43.5076 8.45984C42.9157 8.45984 42.379 8.29932 41.8975 7.9783C41.4159 7.65728 41.0247 7.21253 40.7237 6.64406V9.98469H39.8008V2.68144H40.7237V4.36179C41.0247 3.79331 41.4159 3.35024 41.8975 3.03256C42.379 2.71154 42.9157 2.55103 43.5076 2.55103ZM43.3521 7.68236C43.7467 7.68236 44.0995 7.5904 44.4105 7.40648C44.7248 7.22256 44.9689 6.96675 45.1428 6.63904C45.32 6.30799 45.4086 5.93012 45.4086 5.50543C45.4086 5.08409 45.32 4.70789 45.1428 4.37684C44.9689 4.04578 44.7248 3.7883 44.4105 3.60438C44.0995 3.42046 43.7467 3.3285 43.3521 3.3285C42.7702 3.3285 42.2469 3.52579 41.7821 3.92038C41.3206 4.31497 40.9595 4.84332 40.6986 5.50543C40.9595 6.17088 41.3206 6.7009 41.7821 7.09549C42.2436 7.48674 42.7669 7.68236 43.3521 7.68236Z" fill="black"/>
<path d="M33.4416 5.77629C33.4851 6.16754 33.6138 6.50862 33.8278 6.79955C34.0452 7.08713 34.3328 7.30784 34.6906 7.46166C35.0484 7.61548 35.4597 7.69239 35.9245 7.69239C36.3826 7.69239 36.834 7.61715 37.2788 7.46667C37.7235 7.31285 38.1265 7.09884 38.4876 6.82463V7.55195C38.1399 7.83284 37.7252 8.05522 37.2437 8.21907C36.7622 8.37958 36.2806 8.45984 35.7991 8.45984C35.1537 8.45984 34.5785 8.33611 34.0736 8.08865C33.572 7.83786 33.1807 7.48841 32.8999 7.04032C32.619 6.59222 32.4785 6.07892 32.4785 5.50041C32.4785 4.92525 32.6106 4.41362 32.8748 3.96553C33.1423 3.51744 33.5151 3.16966 33.9933 2.92221C34.4715 2.67475 35.0166 2.55103 35.6285 2.55103C36.2305 2.55103 36.7588 2.68646 37.2136 2.95732C37.6717 3.22484 38.0262 3.60271 38.277 4.09093C38.5278 4.5758 38.6532 5.13759 38.6532 5.77629H33.4416ZM35.6135 3.31847C35.2256 3.31847 34.8778 3.38869 34.5702 3.52914C34.2659 3.66624 34.0167 3.86521 33.8228 4.12604C33.6322 4.38353 33.5085 4.68783 33.4516 5.03895H37.6851C37.6249 4.68448 37.5012 4.37851 37.3139 4.12102C37.13 3.86354 36.8926 3.66624 36.6016 3.52914C36.3141 3.38869 35.9847 3.31847 35.6135 3.31847Z" fill="black"/>
<path d="M26.4326 2.6814H32.2511V3.43881H29.8033V8.32938H28.8804V3.43881H26.4326V2.6814Z" fill="black"/>
<path d="M26.2443 6.18259C26.1708 6.62734 25.9885 7.0236 25.6976 7.37137C25.41 7.7158 25.0405 7.98332 24.5891 8.17393C24.1376 8.36453 23.6427 8.45984 23.1044 8.45984C22.4824 8.45984 21.9289 8.33611 21.4441 8.08865C20.9592 7.83786 20.5813 7.49008 20.3105 7.04533C20.0429 6.59724 19.9092 6.08394 19.9092 5.50543C19.9092 4.92692 20.0429 4.41529 20.3105 3.97054C20.5813 3.52245 20.9592 3.17468 21.4441 2.92722C21.9289 2.67642 22.4824 2.55103 23.1044 2.55103C23.6427 2.55103 24.1376 2.64633 24.5891 2.83694C25.0405 3.02754 25.41 3.29673 25.6976 3.64451C25.9885 3.98894 26.1708 4.3852 26.2443 4.83329H25.2963C25.2261 4.52565 25.089 4.25813 24.885 4.03074C24.6844 3.8 24.4302 3.62444 24.1226 3.50406C23.8149 3.38033 23.4755 3.31847 23.1044 3.31847C22.6529 3.31847 22.2567 3.40876 21.9156 3.58933C21.5745 3.76656 21.312 4.0207 21.1281 4.35176C20.9441 4.67947 20.8522 5.06403 20.8522 5.50543C20.8522 5.94684 20.9441 6.33307 21.1281 6.66412C21.312 6.99183 21.5745 7.24597 21.9156 7.42655C22.2567 7.60378 22.6529 7.69239 23.1044 7.69239C23.4789 7.69239 23.82 7.63053 24.1276 7.5068C24.4353 7.38308 24.6894 7.20752 24.89 6.98013C25.094 6.75273 25.2294 6.48689 25.2963 6.18259H26.2443Z" fill="black"/>
<path d="M18.8706 2.68144L18.6048 5.50543L18.8706 8.32942H17.9276L17.7822 6.77949C17.4779 7.30784 17.0916 7.72082 16.6235 8.01843C16.1587 8.3127 15.642 8.45984 15.0735 8.45984C14.5251 8.45984 14.0352 8.33611 13.6039 8.08865C13.1725 7.83786 12.8348 7.48841 12.5906 7.04032C12.3499 6.59222 12.2295 6.0806 12.2295 5.50543C12.2295 4.93027 12.3499 4.41864 12.5906 3.97054C12.8348 3.52245 13.1725 3.17468 13.6039 2.92722C14.0352 2.67642 14.5251 2.55103 15.0735 2.55103C15.642 2.55103 16.1587 2.69816 16.6235 2.99243C17.0916 3.2867 17.4779 3.69801 17.7822 4.22636L17.9276 2.68144H18.8706ZM15.229 7.68236C15.8142 7.68236 16.3376 7.48674 16.799 7.09549C17.2605 6.7009 17.6217 6.17088 17.8825 5.50543C17.6217 4.84332 17.2588 4.31497 16.794 3.92038C16.3326 3.52579 15.8109 3.3285 15.229 3.3285C14.8345 3.3285 14.48 3.42046 14.1657 3.60438C13.8547 3.7883 13.6106 4.04578 13.4333 4.37684C13.2594 4.70789 13.1725 5.08409 13.1725 5.50543C13.1725 5.93012 13.2594 6.30799 13.4333 6.63904C13.6106 6.96675 13.8547 7.22256 14.1657 7.40648C14.48 7.5904 14.8345 7.68236 15.229 7.68236Z" fill="black"/>
<path d="M6.13338 7.43653L9.54424 0.80542H10.9688V8.32937H10.0659V1.74341L6.62996 8.32937H5.63178L2.19584 1.74842V8.32937H1.29297V0.80542H2.7175L6.13338 7.43653Z" fill="black"/>
</svg>
