<svg width="231" height="70" viewBox="0 0 231 70" fill="none" xmlns="http://www.w3.org/2000/svg">
<path d="M104.471 17.7279C102.58 17.7279 100.91 17.3768 99.4626 16.6746C98.0152 15.9723 96.8902 14.987 96.0876 13.7187C95.2922 12.4432 94.8945 10.9743 94.8945 9.31183C94.8945 7.6494 95.2922 6.18402 96.0876 4.91569C96.8902 3.6402 98.0152 2.65134 99.4626 1.94911C100.91 1.24687 102.58 0.895752 104.471 0.895752C106.363 0.895752 108.033 1.24687 109.48 1.94911C110.928 2.65134 112.049 3.6402 112.845 4.91569C113.647 6.18402 114.048 7.6494 114.048 9.31183C114.048 10.9743 113.647 12.4432 112.845 13.7187C112.049 14.987 110.928 15.9723 109.48 16.6746C108.033 17.3768 106.363 17.7279 104.471 17.7279ZM104.471 13.7402C105.503 13.7402 106.399 13.5611 107.159 13.2028C107.925 12.8445 108.513 12.3322 108.921 11.6658C109.337 10.9993 109.545 10.2147 109.545 9.31183C109.545 8.40896 109.337 7.62432 108.921 6.95791C108.513 6.2915 107.925 5.77916 107.159 5.42087C106.399 5.06259 105.503 4.88345 104.471 4.88345C103.44 4.88345 102.54 5.06259 101.774 5.42087C101.014 5.77916 100.426 6.2915 100.011 6.95791C99.6024 7.62432 99.3982 8.40896 99.3982 9.31183C99.3982 10.2147 99.6024 10.9993 100.011 11.6658C100.426 12.3322 101.014 12.8445 101.774 13.2028C102.54 13.5611 103.44 13.7402 104.471 13.7402Z" fill="black"/>
<path d="M89.5674 8.03279L95.2748 17.3732H90.2123L86.7513 11.5046L81.9897 17.3732H77.959V1.25049H82.3981V11.3971L90.3413 1.25049H95.0599L89.5674 8.03279Z" fill="black"/>
<path d="M69.4682 6.24854C70.8153 6.24854 71.9798 6.47784 72.9615 6.93645C73.9503 7.39505 74.7063 8.04354 75.2294 8.88193C75.7525 9.72031 76.014 10.6984 76.014 11.8163C76.014 12.9341 75.7525 13.9122 75.2294 14.7506C74.7063 15.5818 73.9503 16.2267 72.9615 16.6853C71.9798 17.1439 70.8153 17.3732 69.4682 17.3732H60.4502V1.25049H64.9108V6.24854H69.4682ZM69.1995 13.8585C69.9232 13.8585 70.4893 13.6793 70.8977 13.3211C71.3062 12.9556 71.5104 12.454 71.5104 11.8163C71.5104 11.1785 71.3062 10.6769 70.8977 10.3115C70.4893 9.94603 69.9232 9.7633 69.1995 9.7633H64.9108V13.8585H69.1995Z" fill="black"/>
<path d="M57.4618 1.25049V17.3732H53.0011V5.19519H46.1543C46.2618 6.40619 46.3156 7.63868 46.3156 8.89267C46.3156 10.9707 46.1257 12.6547 45.7459 13.9445C45.3733 15.2343 44.7893 16.1837 43.9939 16.7928C43.1985 17.4019 42.1595 17.7064 40.8768 17.7064C40.3179 17.7064 39.7662 17.6455 39.2216 17.5237C38.6841 17.4019 38.1969 17.2299 37.7598 17.0078V13.3103C38.3832 13.5539 38.9636 13.6758 39.501 13.6758C40.1244 13.6758 40.626 13.493 41.0058 13.1276C41.3856 12.755 41.6651 12.1746 41.8442 11.3863C42.0233 10.5909 42.1129 9.54833 42.1129 8.25851C42.1129 6.38827 41.9588 4.05226 41.6507 1.25049H57.4618Z" fill="black"/>
<path d="M27.6785 17.7279C25.7867 17.7279 24.1171 17.3768 22.6697 16.6746C21.2222 15.9723 20.0972 14.987 19.2946 13.7187C18.4993 12.4432 18.1016 10.9743 18.1016 9.31183C18.1016 7.6494 18.4993 6.18402 19.2946 4.91569C20.0972 3.6402 21.2222 2.65134 22.6697 1.94911C24.1171 1.24687 25.7867 0.895752 27.6785 0.895752C29.5702 0.895752 31.2398 1.24687 32.6873 1.94911C34.1347 2.65134 35.2562 3.6402 36.0516 4.91569C36.8541 6.18402 37.2554 7.6494 37.2554 9.31183C37.2554 10.9743 36.8541 12.4432 36.0516 13.7187C35.2562 14.987 34.1347 15.9723 32.6873 16.6746C31.2398 17.3768 29.5702 17.7279 27.6785 17.7279ZM27.6785 13.7402C28.7103 13.7402 29.606 13.5611 30.3656 13.2028C31.1323 12.8445 31.7199 12.3322 32.1284 11.6658C32.544 10.9993 32.7518 10.2147 32.7518 9.31183C32.7518 8.40896 32.544 7.62432 32.1284 6.95791C31.7199 6.2915 31.1323 5.77916 30.3656 5.42087C29.606 5.06259 28.7103 4.88345 27.6785 4.88345C26.6466 4.88345 25.7473 5.06259 24.9806 5.42087C24.221 5.77916 23.6335 6.2915 23.2178 6.95791C22.8094 7.62432 22.6052 8.40896 22.6052 9.31183C22.6052 10.2147 22.8094 10.9993 23.2178 11.6658C23.6335 12.3322 24.221 12.8445 24.9806 13.2028C25.7473 13.5611 26.6466 13.7402 27.6785 13.7402Z" fill="black"/>
<path d="M0.793945 1.25049H17.5509V5.21669H11.4027V17.3732H6.94209V5.21669H0.793945V1.25049Z" fill="black"/>
<path d="M217.163 37.2973L225.063 25.6137H230.889V41.7365H226.482V29.8164L218.42 41.7365H212.756V25.6137H217.163V37.2973ZM219.764 20.7124C220.108 21.6439 220.781 22.1097 221.785 22.1097C222.773 22.1097 223.447 21.6439 223.805 20.7124H227.309C226.994 22.0309 226.356 23.009 225.396 23.6467C224.443 24.2773 223.239 24.5926 221.785 24.5926C220.33 24.5926 219.123 24.2773 218.162 23.6467C217.202 23.009 216.564 22.0309 216.249 20.7124H219.764Z" fill="black"/>
<path d="M197.422 30.6118C198.769 30.6118 199.934 30.8411 200.916 31.2997C201.904 31.7583 202.66 32.4068 203.183 33.2452C203.707 34.0836 203.968 35.0617 203.968 36.1795C203.968 37.2974 203.707 38.2755 203.183 39.1139C202.66 39.9451 201.904 40.59 200.916 41.0486C199.934 41.5072 198.769 41.7365 197.422 41.7365H188.404V25.6138H192.865V30.6118H197.422ZM197.154 38.2218C197.877 38.2218 198.443 38.0426 198.852 37.6843C199.26 37.3189 199.465 36.8173 199.465 36.1795C199.465 35.5418 199.26 35.0402 198.852 34.6748C198.443 34.3093 197.877 34.1266 197.154 34.1266H192.865V38.2218H197.154ZM205.301 41.7365V25.6138H209.762V41.7365H205.301Z" fill="black"/>
<path d="M180.956 31.5792V25.6138H185.416V41.7365H180.956V35.5131H172.712V41.7365H168.251V25.6138H172.712V31.5792H180.956Z" fill="black"/>
<path d="M160.802 31.5792V25.6138H165.263V41.7365H160.802V35.5131H152.558V41.7365H148.098V25.6138H152.558V31.5792H160.802Z" fill="black"/>
<path d="M135.78 35.2982L135.329 38.125H145.54V41.7365H130.546L131.771 33.6751L130.546 25.6138H145.433V29.2253H135.329L135.78 32.0521H144.809V35.2982H135.78Z" fill="black"/>
<path d="M123.581 31.5792V25.6138H128.041V41.7365H123.581V35.5131H115.337V41.7365H110.876V25.6138H115.337V31.5792H123.581Z" fill="black"/>
<path d="M104.693 33.4816C105.933 33.6823 106.882 34.0836 107.542 34.6855C108.208 35.2874 108.541 36.0828 108.541 37.0716C108.541 38.0605 108.215 38.9347 107.563 39.6943C106.918 40.4467 105.972 41.0343 104.725 41.457C103.486 41.8798 101.999 42.0912 100.265 42.0912C98.5594 42.0912 97.0654 41.8547 95.7827 41.3818C94.5001 40.9089 93.5004 40.2353 92.7839 39.3611C92.0673 38.4797 91.6839 37.4514 91.6338 36.2762H96.1052C96.2126 37.0501 96.6175 37.6413 97.3197 38.0498C98.022 38.4582 99.0037 38.6624 100.265 38.6624C101.462 38.6624 102.379 38.5012 103.016 38.1787C103.654 37.8491 103.973 37.3654 103.973 36.7277C103.973 36.1688 103.694 35.7603 103.135 35.5024C102.583 35.2444 101.684 35.1154 100.437 35.1154H97.481V32.1811H100.372C101.44 32.1811 102.243 32.0306 102.78 31.7296C103.325 31.4287 103.597 31.0131 103.597 30.4828C103.597 29.9096 103.303 29.4689 102.715 29.1607C102.135 28.8455 101.322 28.6878 100.276 28.6878C99.1219 28.6878 98.2155 28.8849 97.5562 29.279C96.897 29.6731 96.51 30.2356 96.3954 30.9665H91.967C92.0386 29.8988 92.4148 28.935 93.0956 28.0751C93.7763 27.2081 94.7473 26.5238 96.0084 26.0222C97.2696 25.5134 98.76 25.259 100.48 25.259C101.999 25.259 103.339 25.4489 104.5 25.8287C105.661 26.2085 106.556 26.7423 107.187 27.4302C107.825 28.1181 108.143 28.9099 108.143 29.8057C108.143 30.6655 107.857 31.4215 107.284 32.0736C106.718 32.7257 105.854 33.195 104.693 33.4816Z" fill="black"/>
<path d="M75.942 37.2974L83.8422 25.6138H89.6679V41.7365H85.261V29.8164L77.1996 41.7365H71.5352V25.6138H75.942V37.2974Z" fill="black"/>
<path d="M64.3239 32.3531L70.0636 41.7365H65.001L61.5078 35.8034L56.6602 41.7365H53.3926L48.5343 35.8034L45.0411 41.7365H39.9785L45.7182 32.3531L40.2042 25.6138H44.9121L52.823 35.6744V25.6138H57.2191V35.6636L65.13 25.6138H69.8379L64.3239 32.3531Z" fill="black"/>
<path d="M30.8279 42.0912C28.9362 42.0912 27.2666 41.7401 25.8191 41.0378C24.3716 40.3356 23.2466 39.3503 22.4441 38.082C21.6487 36.8065 21.251 35.3375 21.251 33.6751C21.251 32.0127 21.6487 30.5473 22.4441 29.279C23.2466 28.0035 24.3716 27.0146 25.8191 26.3124C27.2666 25.6102 28.9362 25.259 30.8279 25.259C32.7196 25.259 34.3892 25.6102 35.8367 26.3124C37.2842 27.0146 38.4056 28.0035 39.201 29.279C40.0035 30.5473 40.4048 32.0127 40.4048 33.6751C40.4048 35.3375 40.0035 36.8065 39.201 38.082C38.4056 39.3503 37.2842 40.3356 35.8367 41.0378C34.3892 41.7401 32.7196 42.0912 30.8279 42.0912ZM30.8279 38.1035C31.8598 38.1035 32.7555 37.9244 33.515 37.5661C34.2817 37.2078 34.8693 36.6954 35.2778 36.029C35.6934 35.3626 35.9012 34.578 35.9012 33.6751C35.9012 32.7722 35.6934 31.9876 35.2778 31.3212C34.8693 30.6548 34.2817 30.1424 33.515 29.7842C32.7555 29.4259 31.8598 29.2467 30.8279 29.2467C29.796 29.2467 28.8967 29.4259 28.13 29.7842C27.3705 30.1424 26.7829 30.6548 26.3673 31.3212C25.9588 31.9876 25.7546 32.7722 25.7546 33.6751C25.7546 34.578 25.9588 35.3626 26.3673 36.029C26.7829 36.6954 27.3705 37.2078 28.13 37.5661C28.8967 37.9244 29.796 38.1035 30.8279 38.1035Z" fill="black"/>
<path d="M1.87988 41.7365V25.6138H18.9593V41.7365H14.5094V29.5585H6.34051V41.7365H1.87988Z" fill="black"/>
<path d="M101.576 66.0998V49.9771H118.656V66.0998H114.206V53.9218H106.037V66.0998H101.576Z" fill="black"/>
<path d="M90.4764 58.3609L95.2487 49.9771H100.075L90.7989 66.0998H85.9728L88.015 62.5528L80.749 49.9771H85.6718L90.4764 58.3609Z" fill="black"/>
<path d="M63.501 49.9771H80.2579V53.9432H74.1097V66.0998H69.6491V53.9432H63.501V49.9771Z" fill="black"/>
<path d="M63.0432 59.3497C62.8855 60.7613 62.3983 62.0046 61.5814 63.0794C60.7645 64.1471 59.6861 64.9783 58.3461 65.5731C57.0061 66.1607 55.4906 66.4545 53.7995 66.4545C51.9435 66.4545 50.3062 66.1034 48.8874 65.4011C47.4686 64.6989 46.3687 63.7136 45.5876 62.4453C44.8137 61.1698 44.4268 59.7008 44.4268 58.0384C44.4268 56.376 44.8137 54.9106 45.5876 53.6423C46.3687 52.3668 47.4686 51.3779 48.8874 50.6757C50.3062 49.9734 51.9435 49.6223 53.7995 49.6223C55.4906 49.6223 57.0061 49.9197 58.3461 50.5144C59.6861 51.102 60.7645 51.9332 61.5814 53.0081C62.3983 54.0758 62.8855 55.3154 63.0432 56.7271H58.561C58.3461 55.7096 57.8266 54.9142 57.0025 54.3409C56.1785 53.7677 55.1072 53.481 53.7887 53.481C52.7927 53.481 51.9292 53.6673 51.1983 54.0399C50.4746 54.4054 49.9157 54.9321 49.5215 55.62C49.1346 56.3007 48.9411 57.1069 48.9411 58.0384C48.9411 58.9699 49.1346 59.7797 49.5215 60.4676C49.9157 61.1483 50.4746 61.675 51.1983 62.0476C51.9292 62.413 52.7927 62.5958 53.7887 62.5958C55.1215 62.5958 56.1964 62.3199 57.0133 61.7681C57.8373 61.2092 58.3532 60.4031 58.561 59.3497H63.0432Z" fill="black"/>
<path d="M33.2625 66.4545C31.3707 66.4545 29.7011 66.1034 28.2537 65.4011C26.8062 64.6989 25.6812 63.7136 24.8786 62.4453C24.0832 61.1698 23.6855 59.7008 23.6855 58.0384C23.6855 56.376 24.0832 54.9106 24.8786 53.6423C25.6812 52.3668 26.8062 51.3779 28.2537 50.6757C29.7011 49.9734 31.3707 49.6223 33.2625 49.6223C35.1542 49.6223 36.8238 49.9734 38.2713 50.6757C39.7187 51.3779 40.8402 52.3668 41.6355 53.6423C42.4381 54.9106 42.8394 56.376 42.8394 58.0384C42.8394 59.7008 42.4381 61.1698 41.6355 62.4453C40.8402 63.7136 39.7187 64.6989 38.2713 65.4011C36.8238 66.1034 35.1542 66.4545 33.2625 66.4545ZM33.2625 62.4668C34.2943 62.4668 35.19 62.2876 35.9496 61.9294C36.7163 61.5711 37.3039 61.0587 37.7123 60.3923C38.128 59.7259 38.3358 58.9413 38.3358 58.0384C38.3358 57.1355 38.128 56.3509 37.7123 55.6845C37.3039 55.0181 36.7163 54.5057 35.9496 54.1474C35.19 53.7892 34.2943 53.61 33.2625 53.61C32.2306 53.61 31.3313 53.7892 30.5646 54.1474C29.805 54.5057 29.2174 55.0181 28.8018 55.6845C28.3934 56.3509 28.1892 57.1355 28.1892 58.0384C28.1892 58.9413 28.3934 59.7259 28.8018 60.3923C29.2174 61.0587 29.805 61.5711 30.5646 61.9294C31.3313 62.2876 32.2306 62.4668 33.2625 62.4668Z" fill="black"/>
<path d="M19.894 62.1659H22.6779V69.3459H18.5075V66.0998H4.96437V69.3459H0.793945V62.1659H2.84691C3.39867 61.4923 3.80711 60.5787 4.07224 59.425C4.33737 58.2641 4.46993 56.8346 4.46993 55.1363C4.46993 53.7534 4.36245 52.0336 4.14748 49.9771H19.894V62.1659ZM15.4334 62.2088V53.868H8.53287C8.57586 54.4843 8.59736 55.2116 8.59736 56.05C8.59736 58.8732 8.1925 60.9262 7.38278 62.2088H15.4334Z" fill="black"/>
</svg>
